<svg xmlns="http://www.w3.org/2000/svg" viewBox="0 0 750 500" style="enable-background:new 0 0 750 500" xml:space="preserve"><path style="fill:#fff" d="M0 0h750v500H0z"/><g xmlns:serif="http://www.serif.com/"><ellipse style="fill:#b4cfd6" cx="587.068" cy="438.841" rx="93.465" ry="8.694"/><path style="fill:#ef7d78" d="M635.898 85.796s-5.154 5.494-3.008 7.276c2.146 1.781 10.781 7.487 12.176 3.727l-9.168-11.003z"/><path style="fill:#fda092" d="M662.15 97.803s.013-11.543-15.64-20.366c0 0-6.348-6.803-10.278-7.747s-12.273.169-11.791 2.94c.482 2.771 5.558 3.088 9.26 3.22 3.702.131 4.45 4.094 4.45 4.094s-5.159 5.088-4.45 7.613 3.202 3.183 3.202 3.183.379 2.426 4.529 3.376c0 0 .59 2.068 3.012 3.7 1.08.728 3.663.952 4.838.35 0 0 .889 10.431 12.868-.363z"/><path style="fill:none;stroke:#d04949;stroke-width:1.32;stroke-linecap:round;stroke-linejoin:round;stroke-miterlimit:1.5" d="M637.349 89.775c1.578-3.339 3.596-5.994 6.97-8.578M641.684 93.072c1.857-3.449 3.675-5.307 6.765-7.586M648.449 94.188s2.775 1.911 5.239 1.22M651.068 95.558l-1.527 2.245"/><path style="fill:#fda092" d="m659.151 100.116 2.999-3.317s26.51 44.811 22.589 55.831c-2.607 7.328-32.9 6.068-32.9 6.068l-3.281-28.956 13.225 1.396-11.478-30.227 8.846-.795z"/><path style="fill:#ef7d78" d="m657.014 130.634 10.296 27.778c-7.897.601-15.471.286-15.471.286l-3.281-28.956 8.456.892z"/><path style="fill:#3d6a9f" d="M558.206 408.741c-4.346 9.763-7.576 20.015-7.796 31.585l40.865.202c.176-10.933-4.467-20.71-11.647-29.115l-21.422-2.672z"/><path style="fill:#d4eff9" d="m590.31 431.496-39.206.428a66.778 66.778 0 0 0-.694 8.403l40.865.202a37.19 37.19 0 0 0-.965-9.033z"/><path style="fill:#fda092" d="m591.275 317.086-11.94 96.767c-7.303 3.202-14.718 2.686-22.219-.7l6.081-95.831 28.078-.236z"/><path style="fill:#ef7d78" d="M589.468 331.729c-8.581-.786-17.627-2.505-26.831-5.576l.56-8.831 28.078-.236-1.807 14.643z"/><path style="fill:#3d6a9f" d="m603.53 411.414 20.914 2.335c12.907 2.117 20.724 8.045 25.438 21.865l-52.885-.421c-.278-7.759 1.951-17.513 6.533-23.779z"/><path style="fill:#d4eff9" d="m597.25 429.137 50.887 2.032a49.882 49.882 0 0 1 1.745 4.445l-52.885-.421a40.971 40.971 0 0 1 .253-6.056z"/><path style="fill:#fda092" d="m632.952 311.953-8.479 103.037c-7.527 1.729-14.804 1.13-21.911-1.06l2.424-96.607 27.966-5.37z"/><path style="fill:#ef7d78" d="M631.555 328.922c-7.431 1.642-16.635 3.05-26.943 3.273l.374-14.872 27.966-5.37-1.397 16.969z"/><path style="fill:#e4b586" d="m560.398 247.514-6.743 70.222c14.947 4.049 30.706 5.633 47.245 4.85l.367-2.782c12.803 2.43 25.848 4.122 39.025 2.872l-2.2-76.036c-23.843 4.42-50.717 2.698-77.694.874z"/><path style="fill:#cf9168" d="M638.207 250.615c-17.509 4.093-50.013 9.785-78.551 4.625l.742-7.726c26.977 1.824 53.851 3.546 77.694-.874l.115 3.975zM601.309 319.811l4.022-39.902 12.426-1.543c-5.429 2.176-5.862 36.87 4.678 44.378l-1.796-.124c-4.872-.51-4.549-.466-9.726-1.167l-9.604-1.642z"/><path style="fill:#b0ab1e" d="m583.137 267.026 2.101.051a50.272 50.272 0 0 1 4.369-4.801c-1.787 1.066-3.749 2.458-5.728 4.102l-.742.648zM595.622 266.841l-1.471-2.654-.493-.808-.276-.488-.461-.721-.834-1.367-1.144-1.722-.422-.659-.226-.316a90.05 90.05 0 0 0-2.546-3.559l-.1-.141-.39-.493-1.409-1.823-.665-.804-.343-.436-.387-.447-.604-.731-1.366-1.553-.311-.361-.233-.258-.363-.379-1.857-1.986-.861-.855-.36-.376-.377-.356a64.503 64.503 0 0 0-2.366-2.232l-2.47-2.088c8.512 5.586 14.711 13.696 18.782 20.408a77.158 77.158 0 0 1 3.873 7.187l-.32.018zM553.715 262.701l-1.976 2.393 2.474-2.996.36-.395 1.305-1.463.61-.64.318-.349.353-.354.556-.582 1.247-1.225.284-.285.213-.203.329-.296 1.685-1.552.776-.661.325-.293.339-.273a50.746 50.746 0 0 1 2.122-1.71l2.196-1.567c-5.39 2.865-9.895 7.08-13.439 11.296l-.137 1.141.06.014zM597.65 261.712l-.007.306-1.705.014 1.712-.32zM597.713 258.811l-.001.035-.183.05.184-.085zM628.608 263.993l.251-.027.066-3.444.054-.896.014-.533.067-.807.092-1.516.195-1.946.061-.739.049-.363a83.26 83.26 0 0 1 .555-4.093l.022-.162.107-.582.372-2.138.201-.96.095-.513.125-.541.182-.873.457-1.886.101-.436.081-.316.136-.473.676-2.455.343-1.082.135-.469.158-.457c.353-1.114.694-2.073.994-2.87l1.146-2.787c-4.665 8.204-6.263 17.688-6.695 25.121a75.645 75.645 0 0 0-.04 8.243z"/><path style="fill:#eaeaea" d="M635.34 262.082c-.34.08-.68.16-1.04.24-13.81 3.07-36.57 1.95-60.97.04l-1.15-.09v-130l59.75-1.81 2.25 86.95.61 23.53.55 21.14z"/><path style="fill:#dfdfdf" d="m635.34 217.002-.55 23.94-.49 21.38c-13.81 3.07-36.57 1.95-60.97.04l11.7-97.69s15.54 63.59 49.15 52.74c.38-.13.77-.27 1.16-.41z"/><path style="fill:#fda092" d="M586.865 112.383s2.282 11.334-2.742 14.743c0 0 7.43 19.079 22.412 16.408 14.982-2.671 9.025-15.528 9.025-15.528l-5.406-3.004s-.905-1.693-1.27-7.752l-22.019-4.867z"/><path style="fill:#ef7d78" d="M587.359 119.107c4.739 5.705 14.79 14.611 28.149 8.87l-5.354-2.975s-.905-1.693-1.27-7.752l-22.019-4.867s.646 3.208.494 6.724zM624.425 89.263c4.271-.622 8.142 1.641 8.64 5.05.498 3.409-2.565 6.682-6.836 7.304-4.27.622-8.142-1.64-8.64-5.049-.498-3.409 2.565-6.682 6.836-7.305z"/><path style="fill:#fda092" d="M594.197 60.746c22.78-3.047 27.32 7.698 30.135 24.006 2.816 16.307-1.946 32.969-15.587 35.303-14.936 2.555-27.313-8.307-30.128-24.615-2.815-16.307 1.863-32.859 15.58-34.694z"/><path style="fill:#573333" d="M574.783 103.079s-8.209-16.921-4.738-29.87c3.472-12.949 13.472-28.291 18.903-28.097 5.432.195 2.756 5.18 2.756 5.18s8.084-7.748 15.363-6.59c7.28 1.157 4.181 4.872 4.181 4.872s8.999-2.331 12.227 1.588c3.228 3.919-1.12 10.212-1.12 10.212s4.897-.906 6.901 3.315c2.111 4.443-2.981 9.955-2.981 9.955.685 7.644.016 15.792-1.305 23.499-.464-9.297-.801-15.362-4.096-24.053-10.899-1.083-22.266-.152-34.767 1.717l-.826 13.649c-1.567 5.807-3.43 9.738-2.122 14.614l-8.376.009z"/><path style="fill:#784e47" d="M578.127 55.207c3.79-5.946 7.946-10.198 10.821-10.095 5.432.195 2.756 5.18 2.756 5.18s8.084-7.748 15.363-6.59c7.28 1.157 4.181 4.872 4.181 4.872s8.999-2.331 12.227 1.588c3.228 3.919-1.12 10.212-1.12 10.212s4.897-.906 6.901 3.315c.386.811.531 1.657.511 2.499-3.499-5.218-8.898-4.048-8.898-4.048 1.81-17.055-10.708-10.648-10.708-10.648-2.851-11.645-18.944 2.341-18.944 2.341-1.565-6.186-8.095-2.549-13.09 1.374z"/><path style="fill:#e43b3f" d="m585.747 67.926-1.815-.322-6.241 35.153 1.815.322 6.241-35.153z"/><path style="fill:#e43b3f" d="M602.653 67.568c-.159-.662-.578-1.297-1.164-1.765-.586-.468-1.291-.731-1.96-.731h-14.467c-.669 0-1.247.263-1.607.731-.361.468-.474 1.103-.314 1.765l1.098 4.559c1.285 5.33 6.694 9.652 12.082 9.652h.001c5.387 0 8.714-4.322 7.43-9.652l-1.099-4.559z"/><path style="fill:#214e78" d="M601.634 69.877c-.289-1.197-1.504-2.168-2.714-2.168h-11.978c-1.21 0-1.958.971-1.669 2.168l.492 2.042c1.077 4.47 5.612 8.093 10.129 8.093h.003c4.517 0 7.306-3.623 6.229-8.093l-.492-2.042z"/><path style="fill:#cadff4" d="M599.912 69.442c-.108-.445-.559-.806-1.009-.806h-7.056c-.45 0-.728.361-.62.806l.033.137c.107.444.558.805 1.008.805h7.056c.45 0 .728-.361.621-.805l-.033-.137z"/><path style="fill:#e43b3f" d="M625.512 67.568c-.16-.662-.579-1.297-1.165-1.765-.586-.468-1.291-.731-1.96-.731h-14.466c-.669 0-1.248.263-1.608.731-.36.468-.473 1.103-.314 1.765l1.099 4.559c1.284 5.33 6.693 9.652 12.081 9.652h.001c5.388 0 8.714-4.322 7.43-9.652l-1.098-4.559z"/><path style="fill:#214e78" d="M624.492 69.877c-.288-1.197-1.503-2.168-2.713-2.168H609.8c-1.21 0-1.957.971-1.669 2.168l.492 2.042c1.077 4.47 5.612 8.093 10.129 8.093h.003c4.517 0 7.306-3.623 6.229-8.093l-.492-2.042z"/><path style="fill:#cadff4" d="M622.77 69.442c-.107-.445-.559-.806-1.008-.806h-7.057c-.45 0-.727.361-.62.806l.033.137c.107.444.559.805 1.008.805h7.057c.449 0 .727-.361.62-.805a28.266 28.266 0 0 0-.033-.137z"/><path style="fill:#e43b3f" d="M608.234 65.507c-2.82-.837-5.575-.824-8.266 0v2.202c2.9-.906 5.658-.92 8.266 0v-2.202z"/><path style="fill:#fda092" d="M579.293 91.603c4.632.478 8.089 3.796 7.716 7.407-.373 3.61-4.436 6.154-9.068 5.677-4.632-.478-8.089-3.796-7.717-7.407.373-3.61 4.437-6.154 9.069-5.677z"/><path style="fill:#573333" d="M601.658 82.957c-6.329-1.598-10.132.994-11.914 5.499 3.19-1.984 7.107-3.39 11.488-2.686l.426-2.813zM613.805 82.483c4.924-1.251 8.997-.868 9.365 4.419-2.428-2.672-6.392-2.534-9.77-1.132l.405-3.287z"/><path style="fill:none;stroke:#d04949;stroke-width:1.27;stroke-linecap:round;stroke-linejoin:round;stroke-miterlimit:1.5" d="M612.76 86.902c-1.64 6.259 2.024 10.966 2.2 12.391.181 1.46-1.18 3.091-2.48 4.125"/><ellipse style="fill:#30385b" cx="597.355" cy="93.854" rx="1.444" ry="2.206"/><path style="fill:#30385b" d="M617.775 91.648c.797 0 1.444.988 1.444 2.206s-.646 2.206-1.444 2.206c-.798 0-1.444-.988-1.444-2.206s.646-2.206 1.444-2.206z"/><path style="fill:#fff" d="M612.338 106.73c-3.897.336-8.201-1.209-12.626-3.312 0 0-1.55 8.141 3.961 9.749 8.19 2.388 8.665-6.437 8.665-6.437z"/><path style="fill:#b0ab1e" d="M586.001 123.495c10.912 29.11 13.459 80.284 11.539 143.236-13.929 1.075-28.481-.009-43.885-4.044 5.753-43.511 7.058-86.507 6.539-127.044 7.543-5.302 12.377-8.11 25.807-12.148z"/><path style="fill:#dfd153" d="M593.846 156.326s-.095-19.618-7.505-33.744c0 0-8.501 1.652-11.668 5.353l1.847 20.711s11.169-.746 17.326 7.68z"/><path style="fill:#e3d85c" d="M580.958 266.945c-1.219-1.594-2.268-3.597-3.183-5.788l1.79-1.098 1.807-.967-1.955.654c-.634.248-1.257.525-1.88.826l-.801-2.09-.849-2.563-.532-1.949a21.831 21.831 0 0 1 4.18-.526l2.102.029 2.067.209-2.169-.73c-2.188-.644-4.432-1.013-6.722-.965l-.335-1.226-.95-4.366c1.296-.031 2.601.1 3.858.341l-1.995-.708-2.037-.505c-.825-4.271-1.178-7.349-1.178-7.349 2.2-.083 5.221.549 8.484 1.706l.038 1.484.145 1.496.244-2.835a51.932 51.932 0 0 1 8.283 3.882l-.58 1.645-.456 1.709c.427-1.03.925-2.079 1.475-3.101l1.91 1.192 1.079.754c-1.32 1.887-2.386 3.965-3.276 6.143 1.252-1.919 2.764-3.736 4.463-5.279 1.477 1.119 2.808 2.304 3.909 3.53l-.181 8.312-.184.085.183-.05-.062 2.865-1.712.32 1.705-.014-.103 4.713-1.598.092a77.158 77.158 0 0 0-3.873-7.187c-4.071-6.712-10.27-14.822-18.782-20.408l2.47 2.088c.68.61 1.479 1.352 2.366 2.232l.377.356.36.376.861.855 1.857 1.986.363.379.233.258.311.361 1.366 1.553.604.731.387.447.343.436.665.804 1.409 1.823.39.493.1.141a90.05 90.05 0 0 1 2.546 3.559l.226.316.422.659 1.144 1.722.834 1.367.461.721.276.488.493.808 1.471 2.654c-3.422.22-6.882.308-10.384.236a50.272 50.272 0 0 1 4.369-4.801c-1.787 1.066-3.749 2.458-5.728 4.102l-.742.648-1.542-.038-.637-.043zM558.562 210.936c1.227-.868 2.674-1.605 4.239-2.226.946 1.81 1.678 3.807 2.182 5.822-.157-2.14-.476-4.242-1.041-6.247l1.029-.36 1.787-.511c.177 1.041.307 2.091.386 3.104l.066-1.612-.047-1.591a38.504 38.504 0 0 1 7.431-1.099l-.509 2.535.483-1.262.396-1.281c2.835-.108 5.352.173 7.051.851 0 0-1.037 2.581-2.737 6.07l-1.716-.121-1.734.067c1.042.136 2.093.381 3.099.765l-1.822 3.538-.565.974c-1.777-.672-3.621-.968-5.49-1.01l-1.875.038 1.666.387 1.65.553a17.14 17.14 0 0 1 3.136 1.609l-.898 1.549-1.296 1.997-1.142 1.598a22.28 22.28 0 0 0-1.266-1.236l-1.365-1.108 1.173 1.339 1.127 1.449c-1.578 2.077-3.247 3.839-4.94 4.91l-1.12-2.047c-1.14-1.976-2.329-3.727-3.461-5.146 1.218 2.491 2.306 5.343 3.151 7.994l-.504.235-1.242.407-1.189.242a26.653 26.653 0 0 0-.37-2.612l-.384-1.801.158 2.19c.034.757.048 1.522.044 2.28-1.85.194-3.599-.069-5.071-.486l.145-1.503.427-5.677.812-.857.585-.568.336-.349.539-.5.989-.96 1.32-1.183.492-.458.255-.212a75.456 75.456 0 0 1 2.868-2.397l.113-.094.427-.322 1.551-1.199.718-.517.376-.284.413-.283.653-.47 1.45-.975.333-.228.246-.161.377-.23 1.942-1.216.884-.508.374-.228.383-.206c.91-.522 1.718-.947 2.4-1.291l2.446-1.137c-8.031 2.518-14.879 7.869-19.719 12.589a68.548 68.548 0 0 0-3.522 3.697l.744-9.899.173-3.121zM554.947 251.915a33.84 33.84 0 0 1 5.832-1.938l-.036 2.585.244-1.329.154-1.332c2.767-.628 5.293-.813 7.087-.459 0 0-.545 2.727-1.576 6.469l-1.709.197-1.692.384a13.687 13.687 0 0 1 3.187.183l-1.141 3.812-.376 1.062c-1.87-.334-3.738-.287-5.582.015l-1.837.382 1.709.074 1.723.241c1.147.218 2.285.55 3.378 1.005l-.583 1.647-4.337-.85-5.677-1.362.498-.603.36-.395 1.305-1.463.61-.64.318-.349.353-.354.556-.582 1.247-1.225.284-.285.213-.203.329-.296 1.685-1.552.776-.661.325-.293.339-.273a50.746 50.746 0 0 1 2.122-1.71l2.196-1.567c-5.39 2.865-9.895 7.08-13.439 11.296l1.155-9.631zM583.646 170.96c-1.807-.645-3.493-.952-4.737-.818 0 0 .108 2.016.447 4.8l1.134.259 1.105.395a8.648 8.648 0 0 0-2.167-.085l.407 2.843.152.795c1.293-.114 2.548.048 3.764.393l1.202.403-1.16-.063-1.185.057a11.17 11.17 0 0 0-2.374.498l.242 1.264.403 1.659.39 1.348c.36-.221.72-.426 1.085-.612l1.123-.502-1.049.703-1.043.788c.567 1.771 1.262 3.34 2.122 4.429l1.167-1.209c1.166-1.155 2.314-2.143 3.354-2.91-1.328 1.5-2.65 3.28-3.773 4.967l.275.266.713.534.715.408c.25-.607.51-1.19.806-1.756l.64-1.184-.578 1.502a36.863 36.863 0 0 0-.525 1.588c3.148 1.385 6.548.227 6.548.227s1.433-3.337 1.882-6.969l-.443-.023a12.095 12.095 0 0 0-2.68.05c1.07-.345 2.141-.609 3.197-.732l.054-.717.009-1.028-.029-.408-1.136.345-1.104.416a13.615 13.615 0 0 1 2.21-1.178 8.16 8.16 0 0 0-.448-2.073c-.587-1.599-1.833-3.134-3.408-4.48a20.624 20.624 0 0 0-2.675 3.64c.567-1.467 1.23-2.876 2.031-4.166l-.586-.459-1.042-.716a27.179 27.179 0 0 0-.925 2.097l.308-1.143.376-1.104a24.11 24.11 0 0 0-4.558-2.26l-.222 1.878-.037-.981.023-.976zm-2.809 1.123-1.332-1.287c4.637 3.374 7.893 8.494 9.991 12.77 2.097 4.276 3.035 7.709 3.035 7.709l-.97-2.471-1.026-2.314-.254-.515-.141-.312-.239-.458-.43-.871-.594-1.093-.219-.419-.118-.2a52.601 52.601 0 0 0-1.33-2.254l-.053-.088-.205-.312-.741-1.15-.351-.506-.181-.274-.205-.281-.319-.46-.724-.974-.165-.226-.055-.07-.069-.092-.194-.237-.988-1.241-.461-.533-.192-.235-.202-.22a34.056 34.056 0 0 0-1.268-1.386z"/><path style="fill:#b0ab1e" d="m557.645 223.956-.041.547.812-.857.585-.568.336-.349.539-.5.989-.96 1.32-1.183.492-.458.255-.212a75.456 75.456 0 0 1 2.868-2.397l.113-.094.427-.322 1.551-1.199.718-.517.376-.284.413-.283.653-.47 1.45-.975.333-.228.246-.161.377-.23 1.942-1.216.884-.508.374-.228.383-.206c.91-.522 1.718-.947 2.4-1.291l2.446-1.137c-8.031 2.518-14.879 7.869-19.719 12.589a68.548 68.548 0 0 0-3.522 3.697z"/><path style="fill:#d4c548" d="M624.421 131.013v-6.011l31.539 4.432 4.587 37.891c-10.954 2.064-20.774 3.917-27.548 4.964l-8.578-41.276z"/><path style="fill:#b0ab1e" d="M610.496 123.495c13.753 49.235 17.47 96.609 16.348 140.69 6.507-.541 11.637-1.254 15.256-2.154 4.086-51.789-1.951-93.754-7.864-135.547-8.131-1.527-15.642-2.411-23.74-2.989z"/><path style="fill:#dfd153" d="m609.307 122.582 9.143 33.744s2.773-7.664 11.882-11.611c0 0-7.374-17.215-9.167-19.713-1.794-2.498-9.379-2.845-11.858-2.42z"/><path style="fill:#e3d85c" d="m626.824 237.063 2.319-2.669 1.468 2.366-.544-1.356-.629-1.304c2.227-2.289 4.484-4.028 6.369-4.823 0 0 1.074 2.813 2.282 6.847l-1.486 1.24-1.361 1.401a16.015 16.015 0 0 1 3.09-1.816l1.145 4.167.264 1.196c-1.945.86-3.666 2.064-5.218 3.485l-1.497 1.489 1.643-.996 1.753-.853a19.61 19.61 0 0 1 3.747-1.189l.42 1.902.429 2.56.257 2.13a25.226 25.226 0 0 0-1.948.024l-1.933.202 1.948.128 1.994.248c.259 2.842.209 5.51-.373 7.659l-2.431-.72c-2.396-.649-4.664-1.085-6.64-1.307 2.842.988 5.846 2.359 8.503 3.761l-.236.576-.649 1.173-.406.087-1.574.254-1.108-.862-1.651-1.101 1.755 1.579.468.47-1.439.232-6.696.724.066-3.444.054-.896.014-.533.067-.807.092-1.516.195-1.946.061-.739.049-.363a83.26 83.26 0 0 1 .555-4.093l.022-.162.107-.582.372-2.138.201-.96.095-.513.125-.541.182-.873.457-1.886.101-.436.081-.316.136-.473.676-2.455.343-1.082.135-.469.158-.457c.353-1.114.694-2.073.994-2.87l1.146-2.787c-4.665 8.204-6.263 17.688-6.695 25.121a75.645 75.645 0 0 0-.04 8.243l-1.764.191.177-16.11.478.257-.476-.39.005-.439-.204-10.44zM631.424 166.134c1.44-.877 2.851-1.413 3.975-1.461 0 0 .367 1.957.707 4.686l-.937.411-.88.537a6.877 6.877 0 0 1 1.885-.39l.294 2.796.048.788c-1.162.073-2.228.408-3.217.913l-.964.559 1.005-.226 1.054-.113a9.581 9.581 0 0 1 2.201.142l.076 1.252.027 1.655-.033 1.353a15.856 15.856 0 0 0-1.095-.435l-1.101-.323 1.082.527 1.097.611c-.092 1.786-.342 3.396-.848 4.567l-1.304-.998c-1.289-.947-2.524-1.735-3.614-2.326 1.511 1.256 3.081 2.782 4.454 4.247l-.18.295-.504.616-.535.495a23.938 23.938 0 0 0-1.111-1.577l-.834-1.049.852 1.364c.285.478.561.966.825 1.455-2.448 1.781-5.701 1.15-5.701 1.15s-2.025-3.01-3.251-6.444l.384-.085c.749-.212 1.553-.311 2.366-.333-1.019-.18-2.021-.282-2.977-.25l-.212-.684-.243-.988-.068-.397 1.077.171 1.066.244a12.871 12.871 0 0 0-2.213-.82 8.533 8.533 0 0 1-.081-2.061c.149-1.624.892-3.279 1.968-4.799a22.557 22.557 0 0 1 3.184 3.125c-.834-1.332-1.74-2.594-2.739-3.724l.41-.524.751-.838c.459.619.896 1.258 1.293 1.888l-.532-1.057-.584-1.01a18.8 18.8 0 0 1 3.487-2.824l.626 1.776-.192-.95-.244-.937zm2.726.683.875-1.429c-3.301 3.909-4.989 9.302-5.852 13.719-.862 4.416-.9 7.856-.9 7.856l.286-2.518.371-2.375.105-.532.053-.32.105-.475.178-.9.272-1.138.096-.434.057-.21c.206-.826.426-1.612.653-2.359l.026-.093.109-.329.387-1.213.193-.537.096-.29.115-.3.175-.488.414-1.041.093-.242.032-.074.039-.099.116-.256.584-1.336.283-.578.115-.253.127-.242c.291-.595.562-1.099.797-1.514zM643.278 216.062l-.022-.608c-1.241 1.632-2.386 3.416-3.382 5.123l.446.328 1.129.641 1.112.476.782-2.111-.065-3.849zM643.233 214.828l-.257-7.153-.545-.672-.352-.393-1.273-1.454-.597-.637-.31-.346-.345-.353-.543-.579-1.22-1.222-.278-.285-.208-.202-.322-.296-1.65-1.552-.761-.662-.32-.293-.331-.274a51.267 51.267 0 0 0-2.083-1.717l-2.159-1.582c5.344 2.948 9.772 7.187 13.234 11.389l-.368-5.93-.029.082.025-.147-.2-3.218a36.333 36.333 0 0 0-6.231-2.243l-.011 2.499-.219-1.292-.129-1.292c-2.744-.69-5.257-.947-7.051-.659 0 0 .494 2.652 1.453 6.3l1.698.242 1.679.423a14.048 14.048 0 0 0-3.178.08l1.068 3.719.355 1.037c1.869-.266 3.728-.163 5.56.185l1.822.425-1.704.02-1.72.18a17.263 17.263 0 0 0-3.383.869l.565 1.649.864 2.155.793 1.746c.49-.324.981-.626 1.483-.905l1.555-.762-1.413 1.02-1.391 1.135c1.123 2.289 2.397 4.299 3.834 5.661l1.504-1.7a36.335 36.335 0 0 1 3.089-2.996z"/><path style="fill:#b0ab1e" d="m642.541 200.55.004.065-.029.082.025-.147z"/><path style="fill:#363440" d="m449.739 402.483-2.897 18.709c3.41 4.471 8.532 5.48 14.974 3.817l4.932-10.603-17.009-11.923zM497.065 402.483l-2.896 18.709c3.409 4.471 8.531 5.48 14.973 3.817l4.932-10.603-17.009-11.923z"/><path style="fill:#f19e44" d="m541.293 309.027 11.536 13.42-6.115 5.817-5.029-6.943-23.127 76.598a10.708 10.708 0 0 1-10.196 7.612l-54.771.276 6.771 7.618-6.101 3.303-11.893-13.69.018-.025a10.707 10.707 0 0 1-3.015-10.988l24.101-79.822a10.708 10.708 0 0 1 10.196-7.612l58.687-.295a10.707 10.707 0 0 1 8.938 4.731z"/><path style="fill:#ffce80" d="m541.625 309.413 5.191 6.04-65.732.191a8.922 8.922 0 0 0-8.433 6.083l-11.454 34.125a3.029 3.029 0 0 1-3.833 1.907 3.03 3.03 0 0 1-1.907-3.834l11.454-34.124a14.977 14.977 0 0 1 14.155-10.212l60.559-.176z"/><path style="fill:#fdc458" d="M476.41 325.753a9.105 9.105 0 0 1 8.672-6.474l62.035-.313a9.105 9.105 0 0 1 8.764 11.739l-25.069 83.027a9.105 9.105 0 0 1-8.672 6.474l-62.035.313a9.105 9.105 0 0 1-8.764-11.739l25.069-83.027z"/><path style="fill:#f19e44" d="M468.962 383.1a6.811 6.811 0 0 1 6.569-5.015h49.661a6.809 6.809 0 0 1 6.569 8.605l-4.544 16.629a6.811 6.811 0 0 1-6.569 5.015h-49.661a6.809 6.809 0 0 1-6.569-8.605l4.544-16.629zM484.038 328.288a3.712 3.712 0 0 1 3.547-2.614h54.172a3.712 3.712 0 0 1 3.542 4.826l-2.668 8.486a3.713 3.713 0 0 1-3.537 2.599l-54.156.072a3.711 3.711 0 0 1-3.551-4.811l2.651-8.558z"/><path style="fill:#c7e3f4" d="m491.68 332.625 17.619-53.837c.423-1.295 1.73-2.174 3.202-2.155l36.407.467c1.034.013 2.001.471 2.612 1.237a2.83 2.83 0 0 1 .499 2.661l-17.377 53.172c-.523 1.6-2.362 2.509-4.105 2.029-1.742-.481-2.732-2.17-2.209-3.77l16.122-49.331-29.554-.379-16.904 51.65c-.523 1.6-2.363 2.508-4.105 2.027-1.742-.482-2.731-2.171-2.207-3.771z"/><path style="fill:#fda092" d="M533.385 262.686s-16.374.72-18.195 8.261c-1.16 4.809-1.116 5.768-1.116 5.768l11.037.149s-5.091 13.903-1.967 14.57c3.124.668 10.551-10.734 10.551-10.734s7.375-.798 9.483-4.261c2.395-3.936 2.43-11.652 2.43-11.652l-12.223-2.101z"/><path style="fill:#fda092" d="m547.136 184.523-16.981 79.282 15.24 2.926 23.794-71.769-22.053-10.439z"/><path style="fill:#ef7d78" d="M544.448 197.071c5.784 4.11 13.366 5.521 22.53 4.56l2.211-6.669-22.053-10.439-2.688 12.548z"/><path style="fill:#d4c548" d="M574.495 158.78c-.582-12.776-7.206-27.767-7.206-27.767-14.835 7.173-19.549 21.709-26.005 53.469 7.915 6.613 17.631 12.072 29.793 15.961 0 0 4.536-17.128 3.418-41.663z"/><ellipse style="fill:#b4cfd6" cx="369.4" cy="440.267" rx="77.442" ry="8.694"/><path style="fill:#fcc458" d="M408.576 191.936a16.779 16.779 0 0 0-16.532-13.912h-36.393c-8.522 0-15.69 6.387-16.669 14.852l-5.533 47.85a16.777 16.777 0 0 0 16.668 18.707h50.227a16.779 16.779 0 0 0 16.533-19.647l-8.301-47.85z"/><path style="fill:#f8a848" d="M414.307 194.402a16.778 16.778 0 0 0-16.498-13.718h-36.68c-8.47 0-15.612 6.313-16.652 14.719l-5.262 42.53a16.778 16.778 0 0 0 16.652 18.84h49.836a16.78 16.78 0 0 0 16.497-19.842 599785.72 599785.72 0 0 0-7.893-42.529zM338.232 225.007l-4.168-.261-1.24 19.749a3.408 3.408 0 0 0 3.187 3.614l.768.048 1.453-23.15z"/><path style="fill:#cb4143" d="m303.452 300.863-27.43 36.09c8.278 1.522 17.489-1.444 28.077-11.03l3.793-15.406c-1.214-3.732-2.687-6.957-4.44-9.654z"/><path style="fill:#f9e4e4" d="m276.022 336.953 27.43-36.09c-1.41-2.23-3.014-4.101-4.8-5.616l-27.957 40.091a24.383 24.383 0 0 0 5.327 1.615z"/><path style="fill:#fda092" d="M379.745 291.494s-11.991 55.326-21.347 61.834c-10.002 6.959-57.641-27.55-57.641-27.55-1.407-4.086 2.852-15.9 5.891-17.089 0 0 31.756 12.376 32.214 9.913.868-4.662 2.815-38.735 2.815-38.735l38.068 11.627z"/><path style="fill:#ef7d78" d="m341.282 286.299.395-6.432 38.068 11.627s-.861 3.974-2.31 9.912c-15.649-1.802-29.549-10.395-36.153-15.107z"/><path style="fill:#cb4143" d="m381.128 432.73 45.281 2.115c-3.443-7.681-11.11-13.584-25.011-16.864l-14.839 5.616c-2.384 3.117-4.205 6.159-5.431 9.133z"/><path style="fill:#f9e4e4" d="m426.409 434.845-45.281-2.115c-1.037 2.426-1.668 4.808-1.902 7.138l48.875.279a24.326 24.326 0 0 0-1.692-5.302z"/><path style="fill:#fda092" d="M385.562 289.736c3.41 43.876 3.918 90.089.813 134.575 4.808.58 13.2.06 19.304-4.049 8.68-49.825 13.256-92.586 16.086-140.395l-36.203 9.869z"/><path style="fill:#ef7d78" d="m421.115 289.36.65-9.493-36.203 9.869.823 11.921c13.032-.83 25.674-6.789 34.73-12.297z"/><path style="fill:#7396dd" d="M356.105 240.673c-9.571 9.681-14.031 23.05-15.882 42.016 11.202 7.49 24.377 12.164 40.296 13.245l2.69-9.15.918 8.89c13.1-1.326 28.648-5.203 40.716-12.143-1.918-15.067-6.621-29.135-13.16-42.542l-55.578-.316z"/><path style="fill:#6277c5" d="M350.183 248.171a42.504 42.504 0 0 1 5.922-7.498l55.578.316 1.742 3.728c-2.525 1.06-5.529 2.412-9.761 3.284-13.085 2.696-34.396 4.674-53.481.17zM392.835 294.44c-2.973.547-5.897.949-8.708 1.234l-.918-8.89v-.367l2.923-9.389 21.012-3.314-14.309 20.726z"/><path style="fill:#b0ab1e" d="M358.398 146.632s18.125 17.16 23.329 16.484c5.204-.677 24.692-16.451 24.692-16.451s18.579 81.645 14.852 89.196c-3.467 7.024-13.043 9.358-14.852 9.75-1.81.391-42.944 3.586-50.674-.899-6.807-3.95-11.165-6.454-11.091-14.12.074-7.667 13.744-83.96 13.744-83.96z"/><path style="fill:#9fa317" d="M348.192 205.777c.738 9.014 4.707 19.918 12.35 25.991 12.033 9.562 41.607 11.422 61.195-1.128.093 2.546-.042 4.362-.466 5.221-3.467 7.024-13.043 9.358-14.852 9.75-1.81.391-42.944 3.586-50.674-.899-6.807-3.95-11.165-6.454-11.091-14.12.025-2.531 1.531-12.54 3.538-24.815z"/><path style="fill:#fda092" d="M372.164 149.859s1.474 10.156-2.827 12.522c0 0 3.373 13.569 13.071 13.298 7.994-.223 11.887-13.371 11.887-13.371s-4.54-.175-3.655-11.847l-18.476-.602z"/><path style="fill:#ef7d78" d="M371.921 158.336c5.628 3.51 16.486 5.849 22.245 4.377.086-.26.129-.405.129-.405s-4.54-.175-3.655-11.847l-18.476-.602s.685 4.722-.243 8.477z"/><path style="fill:#fda092" d="M403.664 149.859c25.613-17.638 46.938-42.25 66.068-70.436l9.853 10.82c-20.685 36.685-43.717 68.739-68.735 96.956l-7.186-37.34z"/><path style="fill:#fda092" d="M469.871 81.39s-4.689-18.316-2.404-19.85 6.359 10.357 6.359 10.357 11.087-16.557 13.986-14.871c2.899 1.685-3.879 13.385-3.879 13.385s11.725-8.239 13.928-6.636c2.202 1.603-9.235 12.16-9.235 12.16s11.546-3.214 12.091-1.346c.545 1.868-10.291 7.855-10.291 7.855s11.403.357 10.952 2.293c-.451 1.935-22.546 5.874-22.546 5.874l-7.95-8.147M362.011 154.228c-19.549-18.558-39.383-45.203-58.762-76.638l-10.877 9.79c15.71 36.523 36.177 69.308 59.044 101.977l10.595-35.129z"/><path style="fill:#fda092" d="M302.916 79.533s6.482-17.761 4.36-19.514c-2.121-1.752-7.354 9.677-7.354 9.677s-9.392-17.575-12.443-16.185c-3.052 1.39 2.533 13.703 2.533 13.703s-10.851-9.36-13.202-7.983c-2.35 1.376 7.985 13.016 7.985 13.016s-11.171-4.343-11.899-2.538c-.727 1.804 9.462 8.836 9.462 8.836s-11.382-.775-11.125 1.196 21.852 8.08 21.852 8.08l8.719-7.319"/><path style="fill:#ffd983" d="m370.114 154.645-4.796-1.736c-7.78 29.389-16.029 57.133-26.231 84.767.284 2.887 1.079 5.175 3.206 5.904 10.203-25.303 20.109-56.886 27.821-88.935zM392.714 154.645l4.796-1.736c7.781 29.389 14.771 53.998 24.972 81.632-.58 2.671-2.034 4.376-3.254 4.784-10.204-25.304-18.802-52.631-26.514-84.68z"/><path style="fill:#363e77" d="M372.079 216.331c-1.251-21.737-.571-39.66.069-59.994a1.31 1.31 0 0 0-2.619-.082c-.643 20.412-1.322 38.405-.066 60.227a1.31 1.31 0 1 0 2.616-.151zM398.365 214.735c-.587-18.766-2.274-38.084-4.624-57.734a1.311 1.311 0 0 0-2.602.311c2.341 19.572 4.023 38.813 4.607 57.505a1.31 1.31 0 1 0 2.619-.082z"/><path style="fill:#c84a77" d="M367.559 218.351a4.766 4.766 0 0 1 4.713-4.818l22.398-.248a4.766 4.766 0 0 1 4.818 4.712l.147 13.332a4.765 4.765 0 0 1-4.712 4.818l-22.398.248a4.769 4.769 0 0 1-4.818-4.712l-.148-13.332z"/><path style="fill:#da669a" d="M369.799 218.302a4.767 4.767 0 0 1 4.712-4.818l22.398-.249a4.764 4.764 0 0 1 4.818 4.713l.148 13.332a4.767 4.767 0 0 1-4.712 4.817l-22.398.249a4.764 4.764 0 0 1-4.818-4.713l-.148-13.331z"/><path style="fill:#c84a77" d="M392.113 228.976c1.048-1.253 1.692-3.013 1.67-4.955-.021-1.942-.704-3.688-1.78-4.917l-.02-1.878-4.389.048v.035c-2.793.38-4.947 3.308-4.908 6.835.039 3.526 2.258 6.407 5.058 6.724l.001.035 4.389-.049-.021-1.878z"/><path style="fill:#f599c8" d="M391.589 217.23a6.819 6.819 0 0 0-6.739 6.89 6.819 6.819 0 0 0 6.89 6.739c3.761-.042 6.781-3.129 6.739-6.89s-3.129-6.781-6.89-6.739z"/><path style="fill:#363e77" d="M391.605 218.654a5.394 5.394 0 0 0-5.331 5.45c.033 2.975 2.475 5.363 5.45 5.33s5.364-2.475 5.331-5.449a5.394 5.394 0 0 0-5.45-5.331z"/><path style="fill:#fff" d="M393.744 220.464a1.295 1.295 0 1 0 .029 2.59 1.295 1.295 0 0 0-.029-2.59z"/><path style="fill:#c84a77" d="M373.162 216.346a.414.414 0 0 1 .41-.419l6.076-.067a.414.414 0 0 1 .419.41l.024 2.176a.414.414 0 0 1-.41.419l-6.076.067a.414.414 0 0 1-.419-.41l-.024-2.176z"/><path style="fill:#363e77" d="M373.735 216.779a.313.313 0 0 1 .309-.316l5.129-.057a.314.314 0 0 1 .316.309l.012 1.141a.313.313 0 0 1-.309.316l-5.128.056a.312.312 0 0 1-.316-.308l-.013-1.141z"/><path style="fill:#fff" d="M375.565 217.036a.273.273 0 0 1 .271-.278l2.866-.032a.278.278 0 0 1 .278.272v.018a.275.275 0 0 1-.272.278l-2.865.032a.275.275 0 0 1-.278-.29z"/><ellipse style="fill:#e6b489" cx="383.209" cy="107.154" rx="26.897" ry="22.014"/><path style="fill:#f3cda1" d="M364.831 91.087c4.809-3.687 11.274-5.947 18.378-5.947 11.924 0 22.045 6.364 25.568 15.166-15.174-15.099-34.381-11.913-43.946-9.219z"/><ellipse style="fill:#c68f6a" cx="383.945" cy="121.143" rx="44.157" ry="24.59"/><ellipse style="fill:#ae654f" cx="383.199" cy="122.337" rx="31.256" ry="13.971"/><path style="fill:#fda092" d="M382.408 98.234c13.252 0 24.011 12.866 24.011 28.712 0 15.847-9.82 28.915-24.011 28.712-14.173-.202-24.01-12.865-24.01-28.712 0-15.846 10.759-28.712 24.01-28.712z"/><path style="fill:#8d4a54" d="M370.114 107.213c-4.835 4.589-7.218 24.225-4.34 35.201 1.265 4.823-3.827 4.25-4.048 8.397-.428 7.999 1.901 13.021 1.901 13.021s-15.754-5.795-16.027-14.332c-.17-5.311 3.543-7.672 4.763-12.05 1.221-4.379-1.224-8.295 0-12.704 1.24-4.464 3.74-8.512 7.443-12.981 1.715-2.07 10.308-4.552 10.308-4.552zM398.841 108.365c.566.066 4.446 19.436 3.777 29.419-.305 4.55-6.494 8.424-4.287 12.422 2.514 4.552 2.296 9.348-.146 14.779 0 0 9.912-.156 15.854-10.601 1.787-3.142-2.752-5.803-2.902-8.831-.141-2.835 3.411-3.359 2.758-10.774-.669-7.603-5.844-23.435-5.844-23.435l-9.21-2.979z"/><path style="fill:#c68f6a" d="M350.987 121.12c11.95-15.376 51.606-19.042 63.468.067 1.958-5.085-.443-10.597-6.677-16.487l-15.74-5.529c-7.376-3.62-19.332-1.702-29.948 2.873-7.05 7.099-11.116 13.538-11.103 19.076z"/><ellipse style="fill:#30385b" cx="373.336" cy="125.432" rx="1.172" ry="1.816"/><ellipse style="fill:#30385b" cx="393.096" cy="125.432" rx="1.172" ry="1.816"/><path style="fill:#8d4a54" d="m389.727 114.32.583-2.308c2.282-1.312 7.562-.891 8.689 4.562-2.809-2.854-6.213-3.207-9.272-2.254zM377.972 114.32l-.582-2.308c-2.283-1.312-7.563-.891-8.689 4.562 2.809-2.854 6.212-3.207 9.271-2.254z"/><path style="fill:none;stroke:#d04949;stroke-width:1.27;stroke-linecap:round;stroke-linejoin:round;stroke-miterlimit:1.5" d="M386.674 120.526c-1.64 6.259.228 8.907.47 10.515.163 1.084-.761 2.397-1.583 2.93"/><path style="fill:#fff" d="M376.351 136.308c5.05.958 8.463 1.027 13.682.97 0 0-.273 9.953-7.82 9.071-6.644-.776-5.862-10.041-5.862-10.041z"/><ellipse style="fill:#b4cfd6" cx="167.436" cy="440.267" rx="83.749" ry="8.694"/><path style="fill:#2b2738" d="M220.899 410.672s-16.526 14.613-2.802 31.112l33.088-33.098-14.687-10.892-15.599 12.878z"/><path style="fill:#f0edf4" d="M214.572 436.268c.812 1.814 1.975 3.653 3.525 5.516l33.088-33.098-4.296-3.186-32.317 30.768z"/><path style="fill:#fda092" d="m125.684 312.823-6.103 109.221 21.042 4.195 16.628-107.645-31.567-5.771z"/><path style="fill:#ef7d78" d="M124.905 326.762c7.023 2.484 17.419 5.419 30.029 6.827l2.317-14.995-31.567-5.771-.779 13.939z"/><path style="fill:#fda092" d="M172.969 315.609s5.695 30.521 12.034 44.529c7.361 16.267 34.4 52.448 34.4 52.448 6.958-1.239 13.883-8.651 18.271-13.422 0 0-21.231-32.783-27.907-46.978-5.654-12.022-7.668-39.112-7.668-39.112l-29.13 2.535z"/><path style="fill:#ef7d78" d="M177.013 334.253a126.101 126.101 0 0 0 27.072-4.459c-1.413-9.012-1.986-16.72-1.986-16.72l-29.13 2.535s1.593 8.534 4.044 18.644z"/><path style="fill:#2b2738" d="M121.441 420.213s-21.581-4.569-26.658 16.282l46.295 6.862v-18.285l-19.637-4.859z"/><path style="fill:#f0edf4" d="M97.114 430.378c-.974 1.733-1.758 3.763-2.331 6.117l46.295 6.862v-5.348l-43.964-7.631z"/><path style="fill:#593a58" d="M133.443 134.551c-5.505-.037-9.963-4.802-9.963-10.665 0-5.886 4.493-10.665 10.027-10.665h96.423v21.33h-96.487z"/><ellipse style="fill:#472f48" cx="230.784" cy="123.886" rx="10.028" ry="10.665"/><path style="fill:#89a7e2" d="M242.913 148.067a13.513 13.513 0 0 0-13.516-13.516h-51.008v56.569h56.354a8.17 8.17 0 0 0 8.17-8.169v-34.884z"/><path style="fill:#7396dd" d="M237.584 151.831c0-8.289-6.719-15.008-15.008-15.008h-60.603c-8.288 0-15.007 6.719-15.007 15.008v89.878c0 8.288 6.719 15.007 15.007 15.007h60.603c8.289 0 15.008-6.719 15.008-15.007v-89.878z"/><path style="fill:#6277c5" d="M218.985 151.831c0-8.289-6.719-15.008-15.007-15.008h-60.604c-8.288 0-15.007 6.719-15.007 15.008v89.878c0 8.288 6.719 15.007 15.007 15.007h60.604c8.288 0 15.007-6.719 15.007-15.007v-89.878zM240.812 226.938h-18.774v22.123h13.16c3.1 0 5.614-2.513 5.614-5.614v-16.509z"/><path style="fill:#e4b586" d="m135.63 240.518-9.17 8.217-6.879 71.423s25.819 9.352 43.997 5.847l2.765-26.567 4.675 26.052s32.624-1.64 44.851-9.987l-9.741-75.939-70.498.954z"/><path style="fill:#cf9168" d="m208.739 259.92-2.611-20.356-70.498.954-9.17 8.217-.776 8.055c22.58 9.503 41.881 9.194 83.055 3.13zM163.923 322.69l2.347-22.549-.07-.918-1.746-11.886-13.564-1.151 13.033 36.504z"/><path style="fill:#e55950" d="m141.717 147.422-1.823-13.197s-8.074 3.398-14.38 11.501c-4.877 6.268-13.626 23.05-13.626 23.05l20.967 7.221 8.862-28.575z"/><path style="fill:#e43b3f" d="M158.444 126.544s-24.908 7.998-27.183 14.616c-4.18 12.158-7.5 112.957-7.5 112.957 7.688 2.948 15.626 5.262 24.136 6.122l4.66-8.205 7.302 8.233c17.052-1.641 33.526-5.055 49.066-11.337 0 0-1.756-104.842-11.492-110.777-20.874-12.723-38.989-11.609-38.989-11.609z"/><ellipse style="fill:#fed6ce" cx="153.078" cy="155.504" rx="1.934" ry="1.887"/><ellipse style="fill:#fed6ce" cx="150.411" cy="226.496" rx="1.934" ry="1.887"/><ellipse style="fill:#fed6ce" cx="151.144" cy="244.213" rx="1.934" ry="1.887"/><path style="fill:#ef7d78" d="m219.483 173.213 13.244 29.847-16.685 7.561-15.837-24.242 19.278-13.166z"/><path style="fill:#e55950" d="M194.688 136.823s5.573 1.394 14.237 11.627c5.426 6.409 18.471 30.577 18.471 30.577l-27.216 14.366s-13.193-29.229-5.492-56.57z"/><path style="fill:#59649a" d="M199.482 137.894c-10.972 31.833-12.064 62.168 13.36 84.191l-1.857 7.451c-37.562-31.448-42.101-57.907-27.789-98.045 4.789 1.178 11.971 2.883 16.286 6.403zM123.48 229.536c27.433 2.367 56.341 1.503 85.542 0l.55 8.464c-30.319 1.107-59.898 1.709-86.092 0v-8.464z"/><path style="fill:#6277c5" d="M160.392 232.999a3.463 3.463 0 0 0-3.463-3.463h-12.617a3.464 3.464 0 0 0-3.463 3.463v4.319c0 .918.365 1.799 1.014 2.449a3.467 3.467 0 0 0 2.449 1.014h12.617c.918 0 1.799-.365 2.449-1.014a3.467 3.467 0 0 0 1.014-2.449v-4.319z"/><path style="fill:#59649a" d="M144.552 132.19c-12.501 23.378-17.461 51.496-19.417 88.544l-.895-6.823c-1.781-34.631-.477-58.079 7.896-75.301 3.868-3.471 8.293-5.367 12.416-6.42z"/><path style="fill:#ebebeb" d="M134.924 226.938c-16.846-18.1-36.686-15.882-36.686-15.882-6.116-18.584-13.243-35.871-21.04-52.297 18.902-10.215 42.748 5.344 44.616 6.599l-.004-.022c1.622-1.781 29.367-11.986 59.258-6.165l9.556 58s-44.586-3.014-55.572 9.618l-.128.149z"/><path style="fill:#b0a91b" d="M163.996 159.606c-3.637 6.87-10.227 20.431-10.656 29.026-.323 6.473 12.868 10.027 11.012 16.023-.91 2.942-6.259 7.8-11.474 11.981-2.883.531-5.65 1.211-8.157 2.099.513-4.114 5.237-10.175 2.984-11.168-2.253-.993-13.443 5.362-16.502 5.21-2.129-.106.104-5.266-1.848-6.124-2.004-.881-8.297-.103-10.175.837-1.469.737-.229 3.079-1.091 4.809l-.979-.427-.933-.318c-.141-3.134.87-5.853.323-8.705-.755-3.941-2.221-10.413-4.855-14.938-2.855-4.902-11.144-9.799-12.274-14.477-1.13-4.677 3.38-9.161 5.492-13.586l3.157 1.039 2.175.884c-1.068 2.733-4.354 4.218-4.005 6.836.352 2.641 3.74 6.269 6.12 9.011 2.389 2.752 6.093 4.458 8.212 7.499 2.834 4.069 4.388 15.004 8.793 16.915 4.406 1.911 13.968-2.252 17.64-5.449 3.624-3.155 3.27-9.058 4.392-13.73 1.464-6.101 3.393-17.773 4.395-22.874l3.377-.251 4.877-.122zM181.806 172.335c-5.141 5.022-11.545 11.964-12.648 15.969-1.801 6.544 8.706 12.723 7.891 18.774-.29 2.151-1.99 4.989-4.076 7.742l1.309-.049 6.692.046s-.208-1.161-.303-1.743c-.582-3.57-3.664-14.75-3.192-19.681.368-3.848 5.367-5.216 6.025-9.909l-1.698-11.149z"/><path style="fill:#b0a91b" d="M93.038 191.524c5.508.643 13.123-.324 16.531 1.869 3.35 2.154 3.395 8.434 3.921 11.285.355 1.925-.742 3.642-.765 5.823a32.371 32.371 0 0 0-10.637-1.024c.205-4.52.205-9.413-.616-10.906-.842-1.533-3.517-1-5.86-.131l-.379-1.108-2.195-5.808zM87.082 157.843c.137 1.033-.858 1.419-.637 2.125.879 2.808 2.642 10.667 5.911 14.727 3.27 4.06 11.421 7.431 13.705 9.634.86.829 1.162 3.305 0 3.582-2.406.575-9.626 0-14.439-.137-3.56-9.3-7.493-18.666-11.605-28.073 0 0 2.426-1.331 7.065-1.858z"/><path style="fill:#7999c3" d="M163.996 159.606c5.29-.014 10.732.422 16.101 1.51l1.709 11.219c-5.141 5.022-11.545 11.964-12.648 15.969-1.801 6.544 8.706 12.723 7.891 18.774-.29 2.151-1.99 4.989-4.076 7.742l-7.29.273c-4.858.397-4.554.372-9.107.919l-3.698.624c5.215-4.181 10.564-9.039 11.474-11.981 1.856-5.996-11.335-9.55-11.012-16.023.429-8.595 7.019-22.156 10.656-29.026zM87.082 157.843c4.183-.504 10.166-.36 17.781 2.005-2.112 4.425-6.622 8.909-5.492 13.586 1.13 4.678 9.419 9.575 12.274 14.477 2.634 4.525 4.1 10.997 4.855 14.938.547 2.852-.464 5.571-.323 8.705l-2.203-.751-1.249-.302c.023-2.181 1.12-3.898.765-5.823-.526-2.851-.571-9.131-3.921-11.285-3.408-2.193-11.023-1.226-16.531-1.869l-1.416-3.75c4.813.137 12.033.712 14.439.137 1.162-.277.86-2.753 0-3.582-2.284-2.203-10.435-5.574-13.705-9.634-3.269-4.06-5.032-11.919-5.911-14.727-.221-.706.774-1.092.637-2.125z"/><path style="fill:#8f8411" d="m183.504 183.484 4.82 31.647s-2.887-.221-7.35-.314c0 0-.208-1.161-.303-1.743-.582-3.57-3.664-14.75-3.192-19.681.368-3.848 5.367-5.216 6.025-9.909zM155.742 159.979c-1.002 5.101-2.931 16.773-4.395 22.874-1.122 4.672-.768 10.575-4.392 13.73-3.672 3.197-13.234 7.36-17.64 5.449-4.405-1.911-5.959-12.846-8.793-16.915-2.119-3.041-5.823-4.747-8.212-7.499-2.38-2.742-5.768-6.37-6.12-9.011-.349-2.618 2.937-4.103 4.005-6.836 3.589 1.42 7.461 3.344 11.615 5.858 0 0 15.116-6.125 33.932-7.65zM118.089 212.299c.862-1.73-.378-4.072 1.091-4.809 1.878-.94 8.171-1.718 10.175-.837 1.952.858-.281 6.018 1.848 6.124 3.059.152 14.249-6.203 16.502-5.21 2.253.993-2.471 7.054-2.984 11.168-4.156 1.394-7.619 3.309-9.797 5.871 0 0-6.311-7.911-16.835-12.307zM95.612 198.44c2.343-.869 5.018-1.402 5.86.131.821 1.493.821 6.386.616 10.906l-2.63.205-3.846-11.242z"/><path style="fill-opacity:.16" d="m134.963 226.893-.039.045c-16.846-18.1-36.686-15.882-36.686-15.882-6.116-18.584-13.243-35.871-21.04-52.297 18.902-10.215 42.748 5.344 44.616 6.599l-.004-.022a.7.7 0 0 1 .061-.06l13.092 61.617z"/><path style="fill:#fda092" d="M203.286 183.754s-17.76-20.74-22.107-20.884c-6.796-.226-10.916 2.204-10.669 4.378.353 3.114 9.041 1.68 9.041 1.68l3.598 2.987s-7.022-.479-9.565.958c-2.121 1.2-7.086 6.809-6.348 9.363.619 2.147 2.84 1.913 2.84 1.913s-.953 2.01 0 3.496c1.204 1.879 4.098.258 4.098.258s-1.442 1.451.438 2.743c1.384.952 4.342-.817 5.74-1.004 1.796-.239 3.414.98 3.414.98s4.483 7.123 14.819 5.285l4.701-12.153z"/><path style="fill:none;stroke:#e43b3f;stroke-width:1.27;stroke-linecap:round;stroke-linejoin:round;stroke-miterlimit:1.5" d="M170.644 183.277c3.582-5.369 7.377-6.73 13.003-5.783M174.488 187.064c3.582-5.369 7.097-4.896 11.217-3.787"/><path style="fill:#fda092" d="M200.205 182.102s20.907 10.641 29.782 16.73c3.555 2.439 7.148 15.46 2.342 22.453-3.227 4.694-11.836 3.947-19.179-.853-6.136-4.011-17.065-27.039-17.065-27.039l4.12-11.291zM81.09 175.132c-.937.383-3.974 1.93-.792 4.845.505.462 1.261.841 2.151 1.13-1.031.815-2.312 2.48.7 4.483.65.433 1.588.72 2.656.874-.934.718-2.88 2.702.745 4.732 3.205 1.796 12.337.019 11.608-2.95-.283-1.155-4.205-1.664-7.478-1.888 2.502-.44 4.53-1.453 4.314-2.9-.134-.894-2.418-1.561-4.934-2.027 1.353-.356 2.291-.993 2.324-1.942.032-.928-2.232-1.93-4.718-2.748 1.57-.024 2.801-.453 3.107-1.44.613-1.979-9.562-6.525-9.562-6.525s-5.043.551-2.331 4.601c.432.644 1.227 1.244 2.21 1.755zM172.567 111.384s-1.449 14.382 4.12 18.676c-7.589 6.952-15.533 10.133-22.39 14.227 0 0-4.101-8.514-3.813-13.647 0 0 3.167-1.377 1.418-8.748l20.665-10.508z"/><path style="fill:#ef7d78" d="M150.47 131.117c0-.162.005-.321.014-.477 0 0 3.167-1.377 1.418-8.748l20.665-10.508s-.531 5.276.287 10.392c-4.605 4.406-14.068 11.99-22.384 9.341z"/><path style="fill:#e55950" d="M154.219 144.374c7.556-4.928 14.666-10.311 21.09-16.394 3.536.709 6.979 1.628 9.864 3.81-1.675 7.499-5.492 14.17-10.103 19.242-6.768-4.137-11.482-5.896-20.851-6.658zM151.994 128.716c-.333 6.663.52 11.029 2.225 15.578-5.949.137-12.751 1.234-18.608 5.752 1.303-7.62 2.762-11.917 7.124-18.006 2.506-1.862 5.517-2.79 9.259-3.324z"/><path style="fill:#e6b489" d="M134.924 76.138s7.543-20.061 11.059-22.877c3.835-3.072 11.616-5.574 16.355-4.54 5.851 1.278 26.526 10.903 28.553 19.775 1.826 7.994-2.105 21.826-2.105 21.826l-53.862-14.184z"/><path style="fill:#584344" d="M138.785 66.569c8.675-.362 31.335.356 51.839 15.228-.764 4.748-1.838 8.525-1.838 8.525l-53.862-14.184s1.699-4.519 3.861-9.569z"/><path style="fill:#f4cda8" d="M141.287 60.999c1.728-3.63 3.461-6.749 4.696-7.738 3.835-3.072 11.616-5.574 16.355-4.54 2.865.626 9.283 3.252 15.324 6.811-17.477-5.819-30.162.782-36.375 5.467z"/><path style="fill:#ef7d78" d="M135.296 97.748c3.952 1.464 6.197 5.254 5.009 8.46-1.187 3.205-5.359 4.619-9.312 3.155-3.952-1.464-6.197-5.255-5.01-8.46 1.188-3.205 5.36-4.619 9.313-3.155z"/><path style="fill:#c68f6a" d="M160.154 75.056c26.108 6.358 46.003 16.862 44.4 23.443-1.602 6.581-24.099 6.762-50.207.404s-46.003-16.862-44.4-23.443c1.603-6.581 24.1-6.762 50.207-.404z"/><path style="fill:#a26c47" d="M158.675 88.389c19.05 4.898 27.377 9.567 30.172 11.347 1.485.946-15.141.604-31.227-3.777-16.085-4.381-28.843-9.442-28.249-11.227.702-2.111 11.185-1.002 29.304 3.657z"/><path style="fill:#fda092" d="m140.623 75.078 38.821 10.406s2.292 11.017 1.43 16.467c-2.374 15.004-17.916 24.851-31.055 24.07-15.207-.904-17.892-13.527-16.055-31.523 1.227-12.018 6.859-19.42 6.859-19.42z"/><path style="fill:#2b2738" d="M175.668 105.534s-7.597-9.671-7.966-16.801l15.467 5.121-.244 7.96-7.257 3.72zM137.588 82.792s-3.327 6.825-4.33 17.779c0 0-2.227-8.491-.026-17.923l4.356.144z"/><path style="fill:#c68f6a" d="M132.26 83.557s23.42.322 51.732 13.577l-.823-11.562-46.176-12.955-4.733 10.94z"/><path style="fill:#fda092" d="M179.992 99.937c4.125-.866 8.044 1.147 8.746 4.492.703 3.345-2.075 6.764-6.2 7.63-4.125.867-8.044-1.146-8.746-4.491-.703-3.345 2.075-6.764 6.2-7.631z"/><path style="fill:#cfa581" d="M113.461 81.856c-2.681-2.327-3.971-4.521-3.514-6.396 1.603-6.581 24.1-6.762 50.207-.404 8.344 2.032 16.054 4.487 22.629 7.103-48.195-13.355-76.824-11.017-69.322-.303z"/><ellipse style="fill:#30385b" cx="140.869" cy="98.755" rx="1.172" ry="1.816"/><ellipse style="fill:#30385b" cx="158.335" cy="98.755" rx="1.172" ry="1.816"/><path style="fill:#2b2738" d="m155.562 91.762.313-3.017c5.482-.343 8.377 1.751 9.627 5.396-2.58-1.566-5.786-2.473-9.94-2.379zM144.152 92.014l-.258-3.021c-4.734-1.368-7.696.917-8.652 5.037 2.166-2.161 5.376-2.575 8.91-2.016z"/><path style="fill:none;stroke:#d04949;stroke-width:1.27;stroke-linecap:round;stroke-linejoin:round;stroke-miterlimit:1.5" d="M145.411 100.489c-1.369 2.683-2.087 5.399.33 8.28"/><path style="fill:#fff" d="M145.741 112.014c4.982-.577 9.889-1.686 14.732-3.245 0 0 1.002 8.331-5.289 9.854-7.273 1.761-9.443-6.609-9.443-6.609z"/></g></svg>