<svg viewBox="0 0 512 512" xmlns="http://www.w3.org/2000/svg"><path d="M482 96H255l-2.46.469L236 502h246c11.05 0 20-8.95 20-20V116c0-11.05-8.95-20-20-20zm0 0" fill="#ececf1"/><path d="M236 10H30c-11.05 0-20 8.95-20 20v326c0 11.05 8.95 20 20 20h177.43L236 502l70-126-70-366zm0 0" fill="#9de2eb" style="fill:#ee7c7c"/><path d="M316 452c-5.52 0-10 4.48-10 10s4.48 10 10 10 10-4.48 10-10-4.48-10-10-10zm0 0"/><path d="M482 86H260.719L245.82 8.121A9.992 9.992 0 0 0 236 0H30C13.457 0 0 13.457 0 30v326c0 16.543 13.457 30 30 30h169.441c7.61 33.531 26.72 117.863 26.891 118.523 1.98 7.579 9.59 7.442 9.688 7.477H482c16.543 0 30-13.457 30-30V116c0-16.543-13.457-30-30-30zM20 356V30c0-5.516 4.484-10 10-10h197.73l66.176 346H30c-5.516 0-10-4.484-10-10zm269.004 30-49.04 88.27L219.95 386zM492 482c0 5.516-4.484 10-10 10H252.996l61.746-111.145c.031-.054.055-.117.082-.171a10.028 10.028 0 0 0 1-6.536c0-.007 0-.02-.004-.027L264.543 106H482c5.516 0 10 4.484 10 10zm0 0"/><path d="M196 186h-60c-5.523 0-10 4.477-10 10s4.477 9.988 10 9.988h48.996C180.352 228.785 160.145 246 136 246c-27.57 0-50-22.43-50-50s22.43-50 50-50a50.078 50.078 0 0 1 37.27 16.668c3.68 4.117 10.003 4.465 14.117.785 4.117-3.683 4.468-10.008.785-14.121C174.902 134.504 155.887 126 136 126c-38.598 0-70 31.402-70 70s31.402 70 70 70 70-31.402 70-70c0-5.523-4.477-10-10-10zM389 330.875a230.81 230.81 0 0 0 37.723 33.3c4.543 3.196 10.773 2.071 13.933-2.417 3.18-4.52 2.098-10.754-2.418-13.934a210.727 210.727 0 0 1-36.293-32.437c16.047-21.004 28.192-44.282 36.192-69.387H459c5.523 0 10-4.477 10-10s-4.477-10-10-10h-60v-30c0-5.523-4.477-10-10-10s-10 4.477-10 10v30h-60c-5.523 0-10 4.477-10 10s4.477 10 10 10h20.863c8 25.105 20.145 48.383 36.192 69.39a210.867 210.867 0 0 1-36.293 32.434c-4.516 3.18-5.602 9.418-2.418 13.934 3.172 4.508 9.41 5.605 13.933 2.418A230.81 230.81 0 0 0 389 330.875zM417.043 246c-6.719 19.055-16.11 36.902-28.043 53.297-11.934-16.395-21.324-34.242-28.043-53.297zM462 452H356c-5.523 0-10 4.477-10 10s4.477 10 10 10h106c5.523 0 10-4.477 10-10s-4.477-10-10-10zm0 0"/></svg>