<svg width="1024" height="400" fill="none" xmlns="http://www.w3.org/2000/svg"><path d="M842.074 120.769c-1.871-.871-2.972-1.221-4.158-2.993l.28-1.189c1.533-.531 1.902-.43 3.518-.129 1.436 1.023 1.9 1.861 2.61 3.402-.718.316-1.483.747-2.25.909ZM153.667 152.677c1.593-.944 2.461-1.386 4.333-1.319 1.182.887 1.065 1.092 1.403 2.559-.437.87-.973 1.752-1.24 2.687-2.348.801-5.268.842-7.741 1.135l3.245-5.062ZM160.693 163.526c2.951-.281 5.779-.125 8.708-.265a85.22 85.22 0 0 0-3.184 1.961l.107.549c1.107.638 2.015 1.163 2.929 2.072-.845 1.418-2.184 1.263-3.427 2.255-.556.443.876 1.836.824 2.999-.5.436-.536.518-1.238.833-1.766.793-5.934 1.143-7.641.346 1.793-.602 4.741-1.168 5.94-2.652-1.858-1.728-8.134-1.593-10.704-1.788 2.207-.665 4.807-1.118 6.058-3.257.132-.227.535-1.076.736-1.255.274-.245.627-.384.94-.576l-.048-1.222ZM848.181 153.881c1.359-.605 2.709-1.245 4.085-1.812 2.119-.874 3.065-.76 5.166.103.07.216.115.441.209.647.596 1.33 1.757 2.224 2.815 3.186l.209.848c-1.445.155-2.848.208-4.299.235l-.015.804.913.576c.729.465 1.262.857 1.79 1.556l-2.621.061.331.332-15.052 1.636c2.537-1.83 6.016-3.258 7.993-5.599l.104-1.235-1.628-1.338Z" fill="#272723"/><path d="M844.324 119.86c1.687 2.187 3.782 3.476 6.552 3.855 8.937 1.223 18.278-5.778 26.054-9.229 3.47-1.541 7.009-2.582 10.698-3.462-2.304 1.462-5.14 2.836-6.71 5.106-.057 1.274-.186 1.755.903 2.679.75.636 2.04 1.075 2.935 1.508l.906.45c-1.554 1.502-3.806 3.203-4.661 5.198.359.68.724 1.148 1.179 1.776.691.957.782 1.484.917 2.622-.61 1.299-1.25 1.814-2.333 2.701.474 1.345 1.189 1.774 2.239 2.671l-.024.779c-3.398 1.89-7.106 1.593-10.87 1.605a273.147 273.147 0 0 1 8.61 4.605l-6.31 4.358a72.84 72.84 0 0 0 8.777 5.957c-4.012-1.056-9.003-1.793-12.506-4.015l-.448-.78c.782-.821 1.553-1.233 2.556-1.75l-.366-.605c-1.444.103-2.393.503-3.598-.378.344-1.003.554-1.36 1.182-2.164l-.293-.761c-1.712-4.511-2.698-9.399-3.082-14.205-4.422 7.103-6.419 14.716-6.973 23.064-1.036.752-1.04.63-2.226.728-2.101-.863-3.047-.977-5.166-.104-1.376.567-2.726 1.207-4.085 1.813-2.326-.493-4.41-.375-6.76-.251 3.03-2.758 6.008-5.493 8.759-8.533-2.544.514-5.977 1.625-8.534 1.404-.955-.082-1.289-.146-1.846-.927 1.139-2.246 4.954-4.225 7.01-5.756l.101-.942c-2.904-.307-5.897-.022-8.812.098 2.347-2.142 4.767-3.99 7.357-5.827l-7.816-2.026c1.124-1.127 2.687-2.42 3.462-3.811.53-.956.464-1.01.106-2.073l-2.079-.741-.033-.828c.915-1.072 1.933-1.959 2.978-2.901.766-.162 1.532-.592 2.25-.908ZM899.583 102.711c4.887.583 7.749 2.052 11.368 5.343 7.335 6.672 13.395 14.844 19.766 22.414 6.957 8.268 14.401 16.448 22.05 24.081 6.83 6.808 14.148 13.504 21.693 19.516 6.055 4.825 13.064 9.132 18.273 14.86-11.85-1.588-44.748-11.517-56.062-16.534 1.486-.818 3.145-1.517 4.225-2.861-.483-1.682-1.483-2.236-2.763-3.396.178-.545.042-.269.561-.873.144-.168.292-.332.438-.498l-.145-1.178c-1.172-1.059-2.466-1.943-3.751-2.857-1.393 1.296-3.595 3.978-5.486 4.22-.578-1.152-.652-1.158-.373-2.403 1.212-1.559 2.418-2.309 4.124-3.298l.659-.376c-1.981-.871-2.96 1.049-4.83.281-.106-1.911-.146-3.872-.38-5.77-.365-2.978-1.71-3.797-3.95-5.546-.501-2.576-.773-5.831-3.055-7.397-4.374 3.403-3.772 13.742-5.685 18.778-.102.27-.212.538-.319.806.401.53.792 1.067 1.173 1.612l-.304.78c-2.683.791-5.962.476-8.757.496-.535-1.787-.882-3.345-.91-5.225-.018-1.169.095-1.435-.499-2.469-1.577.469-3.726 1.277-5.385 1.132-1.358-.118-1.602-.816-2.23-1.838 1.39-2.8 5.095-3.047 6.476-5.881l-.742-1.161c-2.474-1.635-5.14-2.033-7.991-2.627a256.272 256.272 0 0 0 4.484-2.801c1.37-.891 2.528-1.517 2.871-3.17-2.127-1.779-5.457-1.923-8.13-2.366 2.868-2.494 5.874-4.863 8.057-8.008-2.438.23-5.341.741-7.737.046-.891-.258-.592-.143-1.036-1.086 1.387-2.563 3.895-4.42 5.669-6.768l.358-.481c-1.754-.853-4.561-1.888-5.812-3.394-.986-1.187-.891-1.763-.775-3.18.969-1.23 1.938-2.021 3.211-2.935l.479-.339-.085-.791c-2.457-1.262-5.343-1.536-8.041-2.02 2.978-1.857 6.136-3.324 9.298-4.838ZM32 189.155c11.343-12.47 24.513-23.098 36.051-35.472a1717.13 1717.13 0 0 0 26.965-30.092c6.408-7.34 12.496-14.91 19.804-21.402 3.041-2.703 6.428-4.609 10.565-4.907 8.95-.646 17.204 7.537 23.324 13.127 8.329 7.606 16.187 15.76 24.01 23.879.17 4.631-1.056 5.376-1.941 9.413-.63 2.872-.914 5.912-1.318 8.829-.317 2.288 1.28 2.747.586 5.014-.956.8-2.968 2.02-3.133 3.178l2.674 1.339c.099 1.006.267.638-.186 1.2-2.929.14-5.757-.016-8.708.265-.602-.089-1.119-.244-1.699-.423.272-.993.666-2.098.782-3.117.189-1.67-.632-2.175-1.613-3.382.267-.935.803-1.817 1.24-2.687-.338-1.467-.221-1.672-1.403-2.559-1.872-.067-2.74.375-4.333 1.319l-1.405-.863c-.036-.294-.068-.59-.108-.883-.134-.991-.41-1.842-.709-2.79-2.023-6.404-2.241-13.635-2.805-20.305-1.263 7.996-1.59 17.264-5.825 24.302.082 1.294.461 2.068 1.056 3.21l-.34 1.066c-1.113.07-2.074.038-3.178-.121l-.264.749c.625 1.044 1.546 2.215 1.786 3.405-1.047 1.853-2.026 3.463-2.732 5.49.567 1.084 1.196 2.074 1.882 3.087l-.137.864a24.843 24.843 0 0 1-3.106.258c.709 1.97 2.252 3.719 3.471 5.424-3.183-.504-5.122-.872-7.743-2.892-3.083-2.376-4.91-2.603-8.7-3.123 2.373-1.057 4.792-1.916 6.673-3.76l.02-.938c-2.855-1.323-6.452-.945-9.55-.941 3.178-1.255 6.791-2.538 8.897-5.359l.095-1.09c-2.151-.916-5.449 1.46-6.584-1.024 1.461-1.922 4.698-2.744 5.624-4.808-2.247-1.079-4.875.188-6.987-1.063.055-1.118.777-1.748 1.593-2.473.719-.638 1.549-1.188 2.335-1.742-1.334-1.328-3.48-1.437-3.859-3.244.505-1.306 1.265-2.238.7-3.565l-2.375-.806-.36-1.028c.746-1.486 1.621-2.689 2.65-3.994-.909-1.346-2.262-1.75-3.165-2.881-.746-.933-.754-9.14-1.468-11.501-.218-.72-.426-1.436-.659-2.151-1.126 3.162-3.263 7.644-3.25 10.969l1.028 1.881c-.882 1.869-2.637 1.859-3.242 3.808l.439 1.02c.386.909.665 1.768.881 2.735-.71.83-2.299 2.053-2.18 3.123.185 1.657 1.382 3.234.756 4.751l-1.105-.026c-.899-.017-1.642.026-2.518.259.756 2.122 3.096 2.941 3.592 5.017-1.437.544-2.813.325-4.309.212l-.252.559c.794 1.228 2.215 2.631 1.943 4.08-1.035.244-2.072.48-3.111.708l-.156.709c.991 1.135 3.471 3.23 3.456 4.655-2.194.241-4.556-.709-6.657-1.301 2.808 3.142 5.377 5.606 8.965 7.88-3.481-.343-6.842-.538-10.34-.463 2.209 1.59 4.468 3.141 6.637 4.785-6.534 1.232-11.973 2.65-18.732 2.323 2.703-1.297 5.389-2.6 8.183-3.69l-5.638-1.484c-.726-3.344-1.215-11.621-3.498-13.726-.98.871-.658.34-.984 1.497-.656 2.331-4.25 8.982-3.685 10.52 1.135.991 1.896 1.355 2.289 2.834-1.541 1.462-4.834-.34-5.558 1.574 1.155 2.144 2.935 3.72 4.64 5.428-1.631-.394-4.259-1.427-5.84-.766-.034.264-.051.533-.106.794-.398 1.891-1.785 2.922-3.375 3.833-9.31 5.334-34.01 7.515-44.663 7.47Z" fill="#363231"/><path d="M276.797 195.264c4.329-.107 8.659-.175 12.99-.204 6.442 5.612 11.682 16.383 16.473 23.753 9.469 14.566 18.735 29.47 29.363 43.23 7.897-13.98 17.85-26.728 27.428-39.572 6.717-9.008 13.174-18.162 19.641-27.349 9.256.109 18.5.487 27.769.522-5.427 10.399-13.974 19.4-20.957 28.787-13.964 18.771-27.588 38.119-42.282 56.314 15.546 23.059 31.545 45.64 47.861 68.161 1.243 1.612 2.399 3.307 3.589 4.959-7.845 1.026-28.699 1.661-35.842-.307-8.449-2.328-31.01-43.763-35.923-52.059-5.339 8.506-11.556 16.603-17.395 24.777-6.535 9.15-12.872 18.578-19.836 27.407-9.268.902-18.666.386-27.956.147a1678.186 1678.186 0 0 0 55.132-75.247c-3.873-5.705-7.26-11.783-10.931-17.627-5.18-8.25-10.649-16.363-16.065-24.457-9.017-13.48-19.39-26.3-26.632-40.847 4.527-.032 9.051-.161 13.573-.388Zm4.545 9.208c16.032 24.584 35.824 49.849 45.283 77.914-10.082 14.188-20.659 28.076-30.892 42.166-4.884 6.727-10.536 13.144-14.124 20.697l-.477.993c5.821-4.973 9.656-11.619 13.999-17.849a2328.893 2328.893 0 0 1 18.141-25.343c4.286-5.926 8.629-12.581 13.831-17.735 1.485 2.025 3.013 4.027 4.363 6.146 11.022 17.739 22.394 35.404 32.936 53.429 4.87-.105 9.742-.13 14.613-.073-12.048-17.176-22.666-35.432-34.295-52.908-10.619-15.958-22.203-31.263-33.147-46.995-8.996-12.932-17.398-26.979-27.726-38.89-.742-.855-1.483-1.17-2.505-1.552ZM639.501 195.267c7.795-.416 16.007-.192 23.807.066 10.461 8.409 22.467 27.956 31.163 39.208a1592.846 1592.846 0 0 0 48.016 59.517c-1.783-13.433-1.009-27.165-.988-40.681.028-19.219-.155-38.347.652-57.556a908.69 908.69 0 0 1 24.765-.187c-.725 34.956-.264 70.061-.128 105.029l.057 32.863c-.018 6.995.797 15.466-1.112 22.237l-1.611.65c-4.763-.214-8.999-4.535-12.301-7.654-4.853-5.015-9.408-10.304-14.296-15.29-10.786-11.008-21.913-21.694-32.513-32.883-17.92-18.917-35.551-38.435-54.753-56.064.632 12.387.281 24.936.26 37.347-.041 24.003-.241 47.957.132 71.962-7.379.863-15.228.431-22.672.469-1.871-9.143-1.13-19.952-1.079-29.281.042-16.231.281-32.46.715-48.684.2-9.791-.429-19.644-.419-29.45.019-17.071.517-34.139.494-51.224 3.937-.035 7.877-.238 11.811-.394Zm-1.272 10.864-.796.832c7.372 23.069 96.889 109.882 118.559 133.942l.403-.224c-.138-6.138-.368-12.261-.314-18.401-15.062-13.682-27.748-29.758-40.501-45.551l-33.153-41.275c-7.637-9.692-14.33-20.277-23.101-29.015-7.05-.757-14.024-.638-21.097-.308Zm-.113 24.573c-1.76 8.989-1.285 112.079.377 115 .208.367.449.501.775.76 2.187-16.92.491-35.208.416-52.288-.085-18.831.935-38.24-.166-57.011-.124-2.094-.21-4.682-1.402-6.461Zm116.332-26.64c-2.236 8.72-.613 27.438-.645 37.299-.056 17.34-.943 34.736-.389 52.071.161 5.07-.123 11.194 1.617 15.952.894-3.034 1.347-101.363.157-104.283-.232-.567-.368-.652-.74-1.039ZM859.183 195.675l8.837.163c1.614 4.513 3.451 8.946 5.058 13.469l6.746-13.211c2.804-.019 5.615-.24 8.415-.399 2.74 3.372 4.888 7.088 6.76 10.997 8.19 17.103 15.441 34.788 23.125 52.133a7015.242 7015.242 0 0 0 33.888 75.06c1.541 3.407 8.778 17.071 8.997 19.931-3.38 2.238-24.156.692-29.266.523-3.224-5.391-5.872-11.319-8.687-16.945-6.999.16-13.986-.013-20.984-.169l-80.143-.289c-2.237 5.948-4.894 11.622-7.922 17.206-9.361.611-18.731.308-28.104.189 12.177-24.824 23.756-49.977 35.6-74.964 13.048-27.525 26.564-55.34 37.68-83.694Zm24.918 13.353c-2.579 2.546-5.387 4.685-8.276 6.865 8.719 21.582 18.809 42.221 28.719 63.249 4.316 9.158 9.743 18.001 12.787 27.688-20.464-.984-41.324-.489-61.828-.37-8.425.05-19.945 1.289-28.11-.316-.703-2.016-.174-3.517.541-5.491 3.079-8.503 7.813-16.755 11.605-24.985a5613.391 5613.391 0 0 0 25.655-56.503c-.374-2.216-.523-4.359-.592-6.604-10.131 27.095-23.989 52.945-36.438 79.022-8.013 17.443-20.178 37.883-23.942 56.508 7.573-9.89 10.26-21.075 15.577-32.077 21.835-.338 43.775.415 65.611.728 12.764.183 25.37-.588 38.123.573 4.661 8.825 8.542 18.363 11.979 27.727 4.183.015 8.292.096 12.456.503-5.656-11.029-10.057-22.396-15.093-33.696-9.354-20.982-19.298-41.715-28.902-62.586-4.815-10.463-8.97-21.405-14.176-31.653-1.259-2.477-3.364-7.071-5.696-8.582Zm-12.39 24.925c-5.054 13.548-12.459 26.547-18.656 39.626-3.652 7.71-6.692 16.399-11.086 23.666 11.263.013 22.532.255 33.793.194 9.126.004 18.833-.676 27.904.127-3.937-7.497-30.191-62.084-31.955-63.613Zm-24.377 92.345c-7.733.088-15.585-.039-23.293.642 10.745 2.892 22.939 2.167 34.01 2.302 14.057.154 28.115.212 42.173.174 7.145-.008 14.471.304 21.591-.196-12.414-4.327-31.836-2.548-45.324-2.636-9.718-.157-19.437-.252-29.157-.286ZM502.107 195.707l.933.009c1.507.009 3.078-.082 4.495.516 4.545 1.918 5.87 7.981 7.411 12.156 2.167-4.137 5.116-10.007 9.46-12.133 1.682-.823 3.376-.89 5.137-.262.886.316 1.178.647 1.691 1.424 4.067 6.167 6.73 13.792 9.68 20.566a1459.948 1459.948 0 0 0 13.083 29.122 5148.815 5148.815 0 0 0 50.599 107.239c-10.068.265-20.198.022-30.273.015-3.248-5.146-5.716-10.898-8.346-16.38a480.065 480.065 0 0 0-24.996-.522c-19.587.1-39.172.034-58.758-.198-7.244-.039-14.479.297-21.723.106l-7.261 16.426c-8.995.46-17.902.262-26.898.015 16.133-37.016 34.632-73.16 52.209-109.505l14.814-31.16c2.737-5.781 5.244-12.083 8.743-17.434Zm23.769 12.285c-2.401 3.073-4.764 6.017-7.576 8.725 3.465 7.223 6.124 14.837 9.333 22.183a1077.16 1077.16 0 0 0 23.156 48.789c3.124 6.3 5.808 12.978 9.238 19.095-19.35-.445-38.755-.234-58.111-.167-11.949.042-23.494.603-35.417-.828 7.704-22.86 20.082-44.969 30.906-66.515 2.907-5.787 6.2-11.614 8.777-17.542.692-1.593 1.12-2.845.879-4.601l-.889-.748c-5.428 3.647-32.324 63.899-37.991 75.126-3.769 7.449-25.258 49.092-24.194 54.296l.812.661c8.401-7.781 8.574-21.876 17.227-29.847 8.904-1.086 17.987-.586 26.943-.468l37.796.524c12.106.175 25.585-1.471 37.47 1.031 6.898 7.205 10.061 17.963 14.511 26.772 3.818-.019 7.621-.016 11.437.156-5.839-10.493-10.245-22.067-15.332-32.965a5628.65 5628.65 0 0 1-27.085-57.843c-4.407-9.81-15.654-39.39-21.89-45.834Zm-12.153 24.357c-10.871 21.489-22.755 42.948-32.04 65.157l32.113-.067c10.51-.021 21.33-.583 31.793.4-7.221-12.729-14.122-25.381-20.154-38.72-3.961-8.76-6.96-18.445-11.712-26.77ZM486.945 326.3c-4.559.099-17.254-.749-20.511 1.537l.182.355c10.574 2.453 25.527 1.16 36.604 1.242 12.56.093 25.09.745 37.657.29l.615-.06c4.187-.367 16.112.677 19.028-.666-1.552-1.72-2.178-1.555-4.496-1.694-8.81-.529-17.799-.18-26.633-.324-14.142-.231-28.302-.821-42.446-.68ZM162.076 194.715c18.919-1.501 40.133 3.765 55.202 15.461 17.581 13.647 27.195 33.404 29.845 55.27 2.611 21.558-2.384 43.705-15.941 60.933-16.164 20.544-40.808 27.182-65.646 30.122-22.137.733-45.433-5.407-62.288-20.307-14.223-12.575-23.776-32.04-24.792-51.008-1.237-23.086 7.552-46.964 23.012-64.056 16.224-17.937 36.954-25.302 60.608-26.415Zm-1.745 21.718c-14.015 1.286-26.306 5.759-35.521 16.824-10.875 13.056-15.463 30.886-13.858 47.673a58.646 58.646 0 0 0 5.406 19.44 58.424 58.424 0 0 0 4.296 7.545 59.274 59.274 0 0 0 3.463 4.642 58.902 58.902 0 0 0 8.207 8.154c11.793 9.526 25.904 13.483 40.976 12.275 14.977-1.972 27.702-9.6 36.882-21.616 8.977-11.749 14.007-27.064 11.882-41.855-2.318-16.116-12.289-31.986-25.374-41.562-9.434-6.906-24.417-13.33-36.359-11.52Zm1.04-13.119.459.152c6.405 2.056 13.229 2.719 19.683 4.657 19.38 5.823 36.783 19.643 46.097 37.711 8.597 16.675 8.276 36.085 2.537 53.616-5.186 15.844-15.062 29.152-30.131 36.746-17.451 8.794-39.596 9.655-58.001 3.374a61.4 61.4 0 0 1-2.768-1.012 60.422 60.422 0 0 1-5.368-2.429 60.306 60.306 0 0 1-5.104-2.945 59.973 59.973 0 0 1-11.276-9.429 59.806 59.806 0 0 1-9.988-14.514c-8.725-18.049-9.505-42.319-2.755-61.122 5.547-15.448 17.216-26.826 31.213-34.924-4.368 1.502-8.521 3.24-12.591 5.437-16.91 12.219-28.234 29.066-31.61 49.776-2.729 16.734-.51 34.136 9.595 48.124 11.774 16.297 30.917 25.304 50.382 28.374 19.588 3.087 41.917.15 58.268-11.762 15.238-11.101 22.916-28.606 25.607-46.903 2.752-18.716-1.222-36.65-12.602-51.885a78.877 78.877 0 0 0-4.877-5.945 75.739 75.739 0 0 0-2.655-2.784 75.696 75.696 0 0 0-4.233-3.918 75.223 75.223 0 0 0-4.513-3.592 76.89 76.89 0 0 0-3.153-2.203 79.258 79.258 0 0 0-1.616-1.043 80.834 80.834 0 0 0-3.309-1.961 80.932 80.932 0 0 0-1.69-.919 81.126 81.126 0 0 0-1.712-.876 74.53 74.53 0 0 0-5.26-2.368 72.196 72.196 0 0 0-1.791-.702 73.593 73.593 0 0 0-3.632-1.269 76.474 76.474 0 0 0-3.689-1.086 71.61 71.61 0 0 0-1.864-.473 74.777 74.777 0 0 0-3.761-.809 81.502 81.502 0 0 0-3.796-.619c-3.299-.451-6.775-.835-10.096-.475Z" fill="#E4350E"/><path d="M371.318 44c21.724 3.946 40.541 38.75 57.48 52.649 8.447 6.93 15.425 1.374 24.611.77 2.82-.187 5.714.142 8.242 1.465 8.391 4.394 15.587 12.494 22.888 18.54 13.754 11.39 27.84 22.016 41.159 33.964 11.401-11.339 22.369-25.207 36.193-33.668 6.451-3.949 13.419-5.783 20.575-7.997 19.809-6.128 24.879-14.998 38.702-29.323 5.45-5.647 11.621-10.765 19.932-10.684 3.815.037 7.851 1.183 11.367 2.647 16.352 6.81 21.801 22.373 33.659 34.015 5.4-4.167 9.864-10.119 14.336-15.24 10.935-12.52 31.882-38.27 46.591-44.216 21.033-8.505 30.485 31.108 41.085 41.52 1.556 1.528 3.414 2.303 5.393 3.128l.749.306c6.179-1.696 12.021-5.708 18.71-4.483 8.418 1.54 14.623 11.68 17.034 19.333 1.15 3.648.522 6.03 2.774 9.444.132.201.269.397.404.597-1.688 1.21-3.292 2.555-4.915 3.85.401.906.991 1.982 1.191 2.945.28 1.347.12 1.734-.534 2.815-.906-.009-1.709.011-2.614.118-.147 2.461 2.913 3.238 2.85 5.425l-2.086.207-.507.63c.392 1.54.859 2.873.474 4.467-1.61.829-4.338-.011-6.082-.293a227.554 227.554 0 0 1 6.919 8.055c-1.324.15-2.66.286-3.974.51-1.527.262-2.281.727-3.155 1.973l.426 1.23c1.859 1.745 3.759 2.593 6.044 3.629-2.364.497-5.11.805-6.812 2.669l.126 1.124c2.15 2.05 5.035 3.128 7.697 4.382-4.678-.249-15.943.944-19.754-1.926 1.179-2.32 7.708-5.527 10.179-7.019-2.885.375-6.288 1.575-9.113 1.572-1.396-.001-1.762-.567-2.752-1.437l.212-.983c.564-.379 1.176-.758 1.708-1.185 1.257-1.009 1.428-1.041 1.659-2.571-1.142-1.257-2.605-1.623-4.158-2.172.306-2.146.729-4.211.088-6.329-2.066-6.837-3.487-13.817-4.863-20.818-.606 4.585-1.723 8.543-3.086 12.936 2.543 3.461-.994 2.087-1.081 4.623-.032.964 1.149 1.436.995 2.953-.193.121-.391.237-.58.366-2.768 1.894.821 2.981.321 5.504l-1.759.555c-.805 1.632.953 1.238 1.109 3.05-.796 1.014-1.614 2.143-1.958 3.41-.398 1.468.564 2.878 1.247 4.103l.321.563-.425.542-1.665-1.42-1.411.133-.146 1.79c-.847-.701-.598-.755-1.799-.691-.63 1.25-.731 1.378-.555 2.751 1.061.287 2.077.651 3.109 1.026l.239.844c-.837.489-1.326.669-2.321.705-1.72.063-3.941-.708-5.162-1.862a23.562 23.562 0 0 1 2.291-.565l.89-.17.353-.822c-.39-.692-.744-1.272-1.398-1.751-1.919-1.404-3.273-1.324-5.515-.909-1.867.345-3.609.891-5.342-.035l-.015-.565c2.137-3.354 7.106-5.77 10.452-7.784-2.766.771-6.649 2.234-9.393 1.171l-.188-.738c4.611-1.078 7.87-2.719 11.84-5.2-4.266.705-8.565 1.188-12.832 1.918 4.129-3.096 8.065-6.21 11.873-9.698-2.817 1.236-5.954 2.569-9.081 2.419-1.67-.08-2.804-.214-3.909-1.502l.321-1.265c1.593-1.861 3.219-2.68 5.372-3.753-1.166-.553-2.359-.989-3.543-1.493-1.448-.617-2.343-1.074-2.926-2.562.624-2.522 3.356-3.182 4.115-5.391.588-1.709-5.601-4.3-6.617-6.332-1.099-2.199 1.676-4.092 2.31-6.167-1.037-.75-2.087-1.492-3.045-2.343-1.078-.958-1.265-.966-1.344-2.357.984-1.083 2.366-2.193 2.496-3.716-3.828-3.598-2.846-10.133-4.296-15.146-3.862 8.557-2.848 8.562-3.412 17.279-.15 2.313-2.011 3.063-3.668 4.389.157 1.683 1.562 2.149 2.28 3.495.665 1.248.411 1.746.013 2.969-1.061.743-1.81.84-3.064.954-.146.013-1.387.092-1.578.17-.263.106-.471.318-.707.477l.12-.455-.769.314c1.003 3.367 5.079 5.321 5.741 8.563.158.769-.308 1.129-.693 1.745-1.953 1.21-3.852 1.342-6.084 1.621 1.625 2.04 4.612 5.043 4.54 7.768-.023.871-.518 1.102-1.072 1.694-2.404 1.014-5.206.606-7.771.519 1.746 1.646 4.622 3.845 5.495 6.107.313.81-.017 1.058-.337 1.784-1.719 1.238-3.728 1.198-5.77 1.384a68.72 68.72 0 0 1 7.168 8.226c-2.57-.854-5.223-2.219-7.886-2.609-.445 1.402.315 2.161.933 3.444-.414 1.829-2.756.963-3.731 2.621 1.875 1.967 4.641 3.419 6.916 4.927-5.713-1.034-11.547-2.434-17.365-2.545 2.204-1.147 5.859-2.541 6.73-4.997l-.73-.839c-2.556-.891-5.182-.674-7.854-.641 2.37-1.213 5.276-2.623 6.855-4.812l-.2-1.029c-1.804-1.208-4.212-1.065-6.32-1.204 2.026-2.498 4.896-4.589 6.263-7.52l-.398-.816c-2.499-.538-4.681.856-7.037.35l-.411-1.011c.665-2.088 2.296-3.074 3.951-4.438l.001-1.081c-1.452-1.541-3.217-2.04-5.164-2.768.99-2.069 2.002-4.128 3.034-6.176l-5.229-2.519c.919-1.881 2.433-4.351 2.174-6.431-5.893-1.375-2.298-3.899-2.992-8.051-.234-1.398-1.424-2.95-2.183-4.131l-.723 10.728c-1.192 1.155-2.226 2.134-3.008 3.629.314.263.738.597.982.918.877 1.162.76 1.845.743 3.229-.873 1.358-1.616 2.505-2.034 4.093.24.801.67 1.868.693 2.694.051 1.944-2.066 2.448-3.171 3.892 1.162 1.332 2.59 2.505 2.945 4.25-1.155.938-1.777 1.363-2.256 2.83.158 2.069 1.473 3.779 2.539 5.502a527.474 527.474 0 0 0-7.223-1.866c1.416 2.338 4.167 5.869 3.484 8.689-1.416 1.041-2.309.867-4.038.977l-.344.671c1.261 2.215 3.527 3.795 5.445 5.434l-.232.44-1.67-.581c-.67-.154-1.363-.337-2.052-.393-2.261-.182-2.577-.106-4.253 1.441 1.039 2.13 3.218 3.899 4.603 5.901l-.436.56c-.575-.047-.931-.053-1.467-.162-7.999-1.625-13.854-31.877-19.266-39.38-2.036.283-4.271.526-6.141 1.419-7.049 3.365-17.98 18.365-25.06 17.855-1.604-.117-1.957-.592-2.883-1.731-.932-5.49 3.536-11.481 4.77-16.788 1.643-7.058-9.512-9.502-13.279-13.932-3.327-3.915-5.283-9.533-8.127-13.882-1.494-2.284-3.084-4.415-5.873-4.997-3.788 2.556-4.857 15.217-8.341 19.995-3.668 5.031-11.08 5.069-15.544 9.772-9.116 9.608 10.088 14.72 10.258 23.464l-.825.844c-13.261 4.733-35.244-13.218-47.971-17.629-12.599 3.21-30.915 16.219-42.694 22.962-15.741 9.01-31.523 17.728-47.774 25.794 2.727-3.466 5.049-6.449 4.895-11.081-.095-2.838-.375-7.249-2.81-9.188-6.177-4.921-20.814 8.541-28.133 9.299-1.37.142-2.697-.035-3.764-.972-2.062-1.808 6.703-17.914 6.194-23.825-.152-1.763-.917-3.326-2.352-4.384-1.736-1.281-4.167-1.634-6.25-1.885-14.605-1.75-19.169 12.293-32.305 14.524-2.162.368-4.394.199-6.155-1.23-1.372-1.113-2.428-2.706-2.516-4.504-.303-6.135 4.735-11.294 8.544-15.497-3.849-1.471-7.522-2.788-11.095-4.872-4.104-7.653-2.053-16.47-6.049-23.958-3.334-6.25-11.5-8.787-15.618-14.757-3.284-4.76-4.516-13.814-7.407-19.551-.722-1.433-1.479-3.211-3.108-3.751-3.838 2.739-5.297 14.85-8.291 19.18-4.463 6.454-13.817 8.428-17.902 15.217-4.36 7.245 3.525 15.124 4.889 22.14.549 2.82.015 5.225-1.687 7.542-6.972 9.49-18.155-4.576-26.221-2.492-2.262.584-3.74 2.096-4.756 4.142-7.925 15.949 2.885 20.357 6.325 32.428.468 1.641.467 2.801-.337 4.354-4.093 2.062-24.78-16.921-29.5-20.004-4.106-2.681-8.174-4.331-12.837-5.779-14.605 5.492-12.486 13.723-18.871 25.21-1.247 2.243-2.889 3.911-5.454 4.496-7.962 1.815-17.666-5.909-23.984-10.046-14.772 4.242-26.412 13.554-41.799 17.514-1.13-4.047-2.583-7.869-4.163-11.759-1.007 3.182-2.023 7.033-4.041 9.708-2.997 3.974-7.502 4.16-12.041 4.763 2.615-1.202 8.202-2.999 9.477-5.672-1.051-.801-2.992-.482-4.323-.507l-.415-.52c1.228-1.096 2.209-2.017 3.067-3.454l-.305-.789c-2.537-.861-5.602-.346-8.251-.208 1.526-.656 3.341-1.341 4.66-2.352 1.13-.865 2.018-1.968 2.182-3.402-1.602-1.037-4.431-.712-6.374-.836l-.594-.71c.696-1.975 2.833-2.655 3.212-4.619-1.251-.823-2.076-1.403-2.988-2.624l.192-.915c1.012-.786 1.68-1.343 2.312-2.467l-.297-.953c-2.038-.73-3.075-1.297-3.977-3.296-.508-1.128-1.657-3.955-1.254-5.079 9.926-.846 22.664 16.016 31.376 20.914 1.991 1.12 3.452 1.539 5.699.935 4.553-4.17 7.024-11.102 10.031-16.433 5.213-9.244 12.482-17.379 20.092-24.705 4.895-4.711 10.631-10.105 17.295-12.109 13.607-4.094 25.024 14.602 37.302 7.603 6-3.419 10.974-10.866 15.396-16.141a1970.81 1970.81 0 0 1 23.595-27.584c6.843-7.892 13.679-16.376 21.89-22.889 3.643-2.888 7.101-5.04 11.633-6.299Z" fill="#363231"/></svg>