<?xml version="1.0" encoding="utf-8"?><svg viewBox="0 0 40 40" xmlns="http://www.w3.org/2000/svg" xmlns:xlink="http://www.w3.org/1999/xlink"><style>:root>svg{display:none}:root>svg:target{display:block}</style><svg fill="none" viewBox="0 0 38 38" id="arrow-left" xmlns="http://www.w3.org/2000/svg"><path d="M30 19.5H9m0 0 6.192 6.5M9 19.5l6.192-6.5" stroke="currentColor"/><rect x="1" y="1" width="36" height="36" rx="18" stroke="currentColor"/></svg><svg fill="none" viewBox="0 0 38 38" id="arrow-right" xmlns="http://www.w3.org/2000/svg"><path d="M8 19.5h21m0 0L22.808 26M29 19.5 22.808 13" stroke="currentColor"/><rect x="1" y="1" width="36" height="36" rx="18" stroke="currentColor"/></svg><svg fill="none" viewBox="0 0 16 22" id="arrow-up" xmlns="http://www.w3.org/2000/svg"><path d="M9.031.585a1.444 1.444 0 0 0-.477-.303 1.358 1.358 0 0 0-1.097 0c-.178.069-.34.172-.477.303L1.202 6.363a1.45 1.45 0 0 0 2.051 2.051l3.308-3.322v15.297a1.444 1.444 0 1 0 2.889 0V5.092l3.308 3.322a1.45 1.45 0 0 0 2.05-2.051L9.032.585Z" fill="currentColor"/></svg><svg fill="none" viewBox="0 0 24 24" id="bracket-gt" xmlns="http://www.w3.org/2000/svg"><path d="M8.4 1.2 6.72 3l8.88 9-8.88 9 1.68 1.8L19.2 12 8.4 1.2Z" fill="currentColor"/></svg><svg fill="none" viewBox="0 0 24 24" id="bracket-lt" xmlns="http://www.w3.org/2000/svg"><path d="m15.6 22.8 1.68-1.8-8.88-9 8.88-9-1.68-1.8L4.8 12l10.8 10.8Z" fill="currentColor"/></svg><svg fill="none" viewBox="0 0 40 40" id="burger" xmlns="http://www.w3.org/2000/svg"><rect y="7" width="40" height="4" rx="2" fill="currentColor"/><rect y="18" width="40" height="4" rx="2" fill="currentColor"/><rect y="29" width="40" height="4" rx="2" fill="currentColor"/></svg><svg viewBox="0 0 14 14" id="cross" xmlns="http://www.w3.org/2000/svg"><path fill-rule="evenodd" clip-rule="evenodd" d="m8.414 7 5.293-5.293A.999.999 0 1 0 12.293.293L7 5.586 1.707.293A.999.999 0 1 0 .293 1.707L5.586 7 .293 12.293a.999.999 0 1 0 1.414 1.414L7 8.414l5.293 5.293a.997.997 0 0 0 1.414 0 .999.999 0 0 0 0-1.414L8.414 7Z" fill="currentColor"/></svg></svg>