<svg xmlns="http://www.w3.org/2000/svg" viewBox="0 0 215 215"><defs><radialGradient id="a" cx="320" cy="222.67" r="357.43" gradientTransform="rotate(-41.69 446.352 174.54) scale(1 .57)" gradientUnits="userSpaceOnUse"><stop offset="0" stop-color="#f9d27a"/><stop offset=".05" stop-color="#f8c871"/><stop offset=".14" stop-color="#f5ad58"/><stop offset=".25" stop-color="#ef8130"/><stop offset=".26" stop-color="#ef7e2d"/><stop offset=".36" stop-color="#f04c3e"/><stop offset=".38" stop-color="#ed4a45"/><stop offset=".49" stop-color="#d43e79"/><stop offset=".55" stop-color="#ca398e"/><stop offset=".7" stop-color="#8d3cc8"/><stop offset=".9" stop-color="#304df0"/></radialGradient></defs><path d="M277 103.2c0-48.65 0-73 15.11-88.09S331.55 0 380.2 0h8.6c48.65 0 73 0 88.09 15.11S492 54.55 492 103.2v8.6c0 48.65 0 73-15.11 88.09S437.45 215 388.8 215h-8.6c-48.65 0-73 0-88.09-15.11S277 160.45 277 111.8Z" transform="translate(-277)" style="fill:url(#a)"/><path data-name="Instagram" d="M384.5 47.55c16.28 0 18.32.07 24.72.36a44 44 0 0 1 14.55 2.79 30.6 30.6 0 0 1 17.53 17.53 44 44 0 0 1 2.79 14.55c.29 6.4.36 8.44.36 24.72s-.07 18.32-.36 24.72a44 44 0 0 1-2.79 14.55 30.6 30.6 0 0 1-17.53 17.53 44 44 0 0 1-14.55 2.79c-6.4.29-8.44.36-24.72.36s-18.32-.07-24.72-.36a44 44 0 0 1-14.55-2.79 30.6 30.6 0 0 1-17.53-17.53 44 44 0 0 1-2.79-14.55c-.29-6.4-.36-8.44-.36-24.72s.07-18.32.36-24.72a44 44 0 0 1 2.79-14.55 30.6 30.6 0 0 1 17.53-17.53 44 44 0 0 1 14.55-2.79c6.4-.29 8.44-.36 24.72-.36Zm24.22 11.15c-6.32-.29-8.21-.35-24.22-.35s-17.9.06-24.22.35a33.06 33.06 0 0 0-11.14 2.07 19.82 19.82 0 0 0-11.37 11.37 33.06 33.06 0 0 0-2.07 11.14c-.29 6.32-.35 8.21-.35 24.22s.06 17.9.35 24.22a33.06 33.06 0 0 0 2.07 11.14 19.82 19.82 0 0 0 11.37 11.37 33.06 33.06 0 0 0 11.14 2.07c6.32.29 8.21.35 24.22.35s17.9-.06 24.22-.35a33.06 33.06 0 0 0 11.14-2.07 19.82 19.82 0 0 0 11.37-11.37 33.06 33.06 0 0 0 2.07-11.14c.29-6.32.35-8.21.35-24.22s-.06-17.9-.35-24.22a33.06 33.06 0 0 0-2.07-11.14 19.82 19.82 0 0 0-11.37-11.37 33.06 33.06 0 0 0-11.14-2.07Zm-24.22 68.78a20 20 0 1 0-20-20 20 20 0 0 0 20 20Zm0-50.77a30.79 30.79 0 1 1-30.79 30.79 30.79 30.79 0 0 1 30.79-30.79Zm39.2-1.21a7.2 7.2 0 1 1-7.2-7.2 7.2 7.2 0 0 1 7.2 7.2Z" transform="translate(-277)" style="fill:#fff;fill-rule:evenodd"/></svg>